<svg width="25" height="25" viewBox="0 0 25 25" fill="none" xmlns="http://www.w3.org/2000/svg">
<mask id="path-1-inside-1_5_24" fill="white">
<path fill-rule="evenodd" clip-rule="evenodd" d="M12.0597 14.8879C11.9857 14.9179 11.9064 14.9328 11.8265 14.9319C11.7473 14.9323 11.6688 14.9169 11.5956 14.8866C11.5224 14.8563 11.456 14.8117 11.4003 14.7555C11.3416 14.7023 11.295 14.6373 11.2633 14.5647C11.2317 14.4921 11.2159 14.4137 11.2169 14.3345V7.68123L11.2693 6.65765L10.9112 7.05066L9.9732 8.06551C9.92014 8.12324 9.85517 8.16876 9.78279 8.19891C9.71041 8.22907 9.63236 8.24316 9.554 8.24018C9.48078 8.24351 9.40762 8.23209 9.3389 8.20658C9.27018 8.18107 9.20731 8.142 9.15399 8.09171C9.10326 8.04281 9.06335 7.98381 9.03687 7.91852C9.01039 7.85322 8.99793 7.78309 9.00028 7.71267C9.00054 7.63735 9.01615 7.56286 9.04619 7.49378C9.07622 7.42471 9.12004 7.36249 9.17495 7.31092L11.3741 5.20437C11.4389 5.13648 11.516 5.08138 11.6012 5.04193C11.67 5.01431 11.7435 5.00008 11.8177 5.00001C11.8954 4.99956 11.9724 5.01378 12.0448 5.04193C12.1274 5.08058 12.2012 5.13588 12.2614 5.20437L14.4623 7.31092C14.5197 7.36121 14.5659 7.4229 14.5981 7.49208C14.6303 7.56126 14.6477 7.63639 14.6492 7.71267C14.6512 7.78385 14.6377 7.85463 14.6097 7.92008C14.5816 7.98554 14.5397 8.04409 14.4868 8.09171C14.378 8.19165 14.2344 8.24496 14.0867 8.24018C14.0098 8.2438 13.9331 8.22996 13.8623 8.19971C13.7916 8.16946 13.7285 8.12358 13.678 8.06551L12.74 7.05066L12.3802 6.65765L12.4326 7.68123V14.3362C12.4347 14.4148 12.4202 14.4928 12.3901 14.5653C12.36 14.6379 12.315 14.7033 12.2579 14.7572C12.2012 14.8135 12.1338 14.8579 12.0597 14.8879ZM15.8253 20.2192H8.17466C7.45152 20.2215 6.9083 20.0445 6.54498 19.6882C6.18166 19.3319 6 18.7945 6 18.076V11.5188C6 10.8026 6.18166 10.2652 6.54498 9.90654C6.9083 9.54788 7.45152 9.36855 8.17466 9.36855H10.0035V10.6052H8.18688C8.05607 10.5909 7.92372 10.6062 7.79969 10.6502C7.67566 10.6942 7.56315 10.7656 7.4706 10.8592C7.37805 10.9527 7.30785 11.066 7.26522 11.1905C7.2226 11.315 7.20867 11.4475 7.22446 11.5782V18.0096C7.21422 18.142 7.23126 18.2752 7.27452 18.4007C7.31778 18.5263 7.38635 18.6417 7.47597 18.7397C7.66868 18.908 7.91913 18.9951 8.17466 18.9825H15.8078C16.0681 18.9984 16.3241 18.9112 16.5205 18.7397C16.6102 18.6417 16.6787 18.5263 16.722 18.4007C16.7652 18.2752 16.7823 18.142 16.772 18.0096V11.5712C16.7823 11.4387 16.7652 11.3056 16.722 11.18C16.6787 11.0544 16.6102 10.9391 16.5205 10.841C16.3245 10.669 16.0682 10.5816 15.8078 10.5982H13.9913V9.36156H15.8253C16.5531 9.36389 17.0975 9.54323 17.4585 9.89956C17.8195 10.2559 18 10.7933 18 11.5118V18.069C18.0012 18.7851 17.8207 19.3226 17.4585 19.6812C17.0964 20.0399 16.552 20.2192 15.8253 20.2192Z"/>
</mask>
<path fill-rule="evenodd" clip-rule="evenodd" d="M12.0597 14.8879C11.9857 14.9179 11.9064 14.9328 11.8265 14.9319C11.7473 14.9323 11.6688 14.9169 11.5956 14.8866C11.5224 14.8563 11.456 14.8117 11.4003 14.7555C11.3416 14.7023 11.295 14.6373 11.2633 14.5647C11.2317 14.4921 11.2159 14.4137 11.2169 14.3345V7.68123L11.2693 6.65765L10.9112 7.05066L9.9732 8.06551C9.92014 8.12324 9.85517 8.16876 9.78279 8.19891C9.71041 8.22907 9.63236 8.24316 9.554 8.24018C9.48078 8.24351 9.40762 8.23209 9.3389 8.20658C9.27018 8.18107 9.20731 8.142 9.15399 8.09171C9.10326 8.04281 9.06335 7.98381 9.03687 7.91852C9.01039 7.85322 8.99793 7.78309 9.00028 7.71267C9.00054 7.63735 9.01615 7.56286 9.04619 7.49378C9.07622 7.42471 9.12004 7.36249 9.17495 7.31092L11.3741 5.20437C11.4389 5.13648 11.516 5.08138 11.6012 5.04193C11.67 5.01431 11.7435 5.00008 11.8177 5.00001C11.8954 4.99956 11.9724 5.01378 12.0448 5.04193C12.1274 5.08058 12.2012 5.13588 12.2614 5.20437L14.4623 7.31092C14.5197 7.36121 14.5659 7.4229 14.5981 7.49208C14.6303 7.56126 14.6477 7.63639 14.6492 7.71267C14.6512 7.78385 14.6377 7.85463 14.6097 7.92008C14.5816 7.98554 14.5397 8.04409 14.4868 8.09171C14.378 8.19165 14.2344 8.24496 14.0867 8.24018C14.0098 8.2438 13.9331 8.22996 13.8623 8.19971C13.7916 8.16946 13.7285 8.12358 13.678 8.06551L12.74 7.05066L12.3802 6.65765L12.4326 7.68123V14.3362C12.4347 14.4148 12.4202 14.4928 12.3901 14.5653C12.36 14.6379 12.315 14.7033 12.2579 14.7572C12.2012 14.8135 12.1338 14.8579 12.0597 14.8879ZM15.8253 20.2192H8.17466C7.45152 20.2215 6.9083 20.0445 6.54498 19.6882C6.18166 19.3319 6 18.7945 6 18.076V11.5188C6 10.8026 6.18166 10.2652 6.54498 9.90654C6.9083 9.54788 7.45152 9.36855 8.17466 9.36855H10.0035V10.6052H8.18688C8.05607 10.5909 7.92372 10.6062 7.79969 10.6502C7.67566 10.6942 7.56315 10.7656 7.4706 10.8592C7.37805 10.9527 7.30785 11.066 7.26522 11.1905C7.2226 11.315 7.20867 11.4475 7.22446 11.5782V18.0096C7.21422 18.142 7.23126 18.2752 7.27452 18.4007C7.31778 18.5263 7.38635 18.6417 7.47597 18.7397C7.66868 18.908 7.91913 18.9951 8.17466 18.9825H15.8078C16.0681 18.9984 16.3241 18.9112 16.5205 18.7397C16.6102 18.6417 16.6787 18.5263 16.722 18.4007C16.7652 18.2752 16.7823 18.142 16.772 18.0096V11.5712C16.7823 11.4387 16.7652 11.3056 16.722 11.18C16.6787 11.0544 16.6102 10.9391 16.5205 10.841C16.3245 10.669 16.0682 10.5816 15.8078 10.5982H13.9913V9.36156H15.8253C16.5531 9.36389 17.0975 9.54323 17.4585 9.89956C17.8195 10.2559 18 10.7933 18 11.5118V18.069C18.0012 18.7851 17.8207 19.3226 17.4585 19.6812C17.0964 20.0399 16.552 20.2192 15.8253 20.2192Z" fill="#AFAFAF"/>
<path d="M11.8265 14.9319L11.8288 14.7319L11.8254 14.7319L11.8265 14.9319ZM12.0597 14.8879L11.9847 14.7025L11.9847 14.7025L12.0597 14.8879ZM11.5956 14.8866L11.5191 15.0714L11.5191 15.0714L11.5956 14.8866ZM11.4003 14.7555L11.5426 14.6145L11.5346 14.6073L11.4003 14.7555ZM11.2633 14.5647L11.08 14.6446L11.08 14.6446L11.2633 14.5647ZM11.2169 14.3345L11.4169 14.337V14.3345H11.2169ZM11.2169 7.68123L11.0169 7.67099V7.68123H11.2169ZM11.2693 6.65765L11.469 6.66788L11.4976 6.11013L11.1214 6.52295L11.2693 6.65765ZM10.9112 7.05066L11.0581 7.18642L11.059 7.18536L10.9112 7.05066ZM9.9732 8.06551L9.82632 7.92976L9.82595 7.93017L9.9732 8.06551ZM9.554 8.24018L9.56159 8.04033L9.55325 8.04001L9.54492 8.04039L9.554 8.24018ZM9.15399 8.09171L9.01521 8.23573L9.01675 8.23719L9.15399 8.09171ZM9.03687 7.91852L9.22221 7.84335L9.22221 7.84335L9.03687 7.91852ZM9.00028 7.71267L9.20026 7.71935L9.20028 7.71335L9.00028 7.71267ZM9.04619 7.49378L9.2296 7.57353V7.57353L9.04619 7.49378ZM9.17495 7.31092L9.31187 7.45673L9.3133 7.45535L9.17495 7.31092ZM11.3741 5.20437L11.5126 5.34895L11.5187 5.34251L11.3741 5.20437ZM11.6012 5.04193L11.5266 4.85605L11.5171 4.86044L11.6012 5.04193ZM11.8177 5.00001L11.8179 5.20001L11.8189 5.20001L11.8177 5.00001ZM12.0448 5.04193L12.1297 4.86037L12.1173 4.85553L12.0448 5.04193ZM12.2614 5.20437L12.1112 5.33646L12.1169 5.34291L12.1231 5.34886L12.2614 5.20437ZM14.4623 7.31092L14.3239 7.45555L14.3305 7.46135L14.4623 7.31092ZM14.5981 7.49208L14.4168 7.57644L14.4168 7.57644L14.5981 7.49208ZM14.6492 7.71267L14.4492 7.71659L14.4493 7.7184L14.6492 7.71267ZM14.4868 8.09171L14.353 7.94298L14.3514 7.94444L14.4868 8.09171ZM14.0867 8.24018L14.0932 8.04029L14.0853 8.04003L14.0773 8.0404L14.0867 8.24018ZM13.8623 8.19971L13.7838 8.38362L13.8623 8.19971ZM13.678 8.06551L13.829 7.93417L13.8249 7.92976L13.678 8.06551ZM12.74 7.05066L12.5925 7.18572L12.5932 7.18641L12.74 7.05066ZM12.3802 6.65765L12.5277 6.52259L12.152 6.11225L12.1805 6.66788L12.3802 6.65765ZM12.4326 7.68123H12.6329L12.6323 7.671L12.4326 7.68123ZM12.4326 14.3362H12.2325L12.2327 14.3416L12.4326 14.3362ZM12.3901 14.5653L12.5748 14.642L12.5748 14.642L12.3901 14.5653ZM12.2579 14.7572L12.1205 14.6119L12.1171 14.6152L12.2579 14.7572ZM8.17466 20.2192V20.0192L8.17402 20.0192L8.17466 20.2192ZM6.54498 9.90654L6.68548 10.0489H6.68548L6.54498 9.90654ZM10.0035 9.36855H10.2035V9.16855H10.0035V9.36855ZM10.0035 10.6052V10.8052H10.2035V10.6052H10.0035ZM8.18688 10.6052L8.16504 10.804L8.17593 10.8052H8.18688V10.6052ZM7.79969 10.6502L7.73286 10.4617H7.73286L7.79969 10.6502ZM7.26522 11.1905L7.45444 11.2553V11.2553L7.26522 11.1905ZM7.22446 11.5782H7.42446V11.5661L7.42301 11.5542L7.22446 11.5782ZM7.22446 18.0096L7.42386 18.025L7.42446 18.0173V18.0096H7.22446ZM7.47597 18.7397L7.32837 18.8747L7.33595 18.883L7.34442 18.8904L7.47597 18.7397ZM8.17466 18.9825V18.7823L8.16488 18.7828L8.17466 18.9825ZM15.8078 18.9825L15.82 18.7825H15.8078V18.9825ZM16.5205 18.7397L16.652 18.8904L16.6605 18.883L16.6681 18.8747L16.5205 18.7397ZM16.772 18.0096H16.572V18.0173L16.5726 18.025L16.772 18.0096ZM16.772 11.5712L16.5726 11.5558L16.572 11.5635V11.5712H16.772ZM16.5205 10.841L16.6681 10.7061L16.6607 10.698L16.6525 10.6907L16.5205 10.841ZM15.8078 10.5982V10.7987L15.8206 10.7978L15.8078 10.5982ZM13.9913 10.5982H13.7913V10.7982H13.9913V10.5982ZM13.9913 9.36156V9.16156H13.7913V9.36156H13.9913ZM15.8253 9.36156L15.826 9.16156H15.8253V9.36156ZM18 18.069H17.8V18.0693L18 18.069ZM11.8241 15.1319C11.9305 15.1331 12.0361 15.1132 12.1348 15.0733L11.9847 14.7025C11.9352 14.7225 11.8822 14.7325 11.8288 14.7319L11.8241 15.1319ZM11.5191 15.0714C11.6169 15.1119 11.7217 15.1324 11.8275 15.1319L11.8254 14.7319C11.7728 14.7322 11.7207 14.7219 11.6721 14.7018L11.5191 15.0714ZM11.2582 14.8962C11.3327 14.9714 11.4214 15.0309 11.5191 15.0714L11.6721 14.7018C11.6235 14.6817 11.5794 14.6521 11.5424 14.6147L11.2582 14.8962ZM11.08 14.6446C11.1229 14.7431 11.1863 14.8314 11.2659 14.9036L11.5346 14.6073C11.497 14.5732 11.467 14.5314 11.4467 14.4848L11.08 14.6446ZM11.0169 14.332C11.0155 14.4395 11.0371 14.546 11.08 14.6446L11.4467 14.4848C11.4264 14.4382 11.4162 14.3878 11.4168 14.337L11.0169 14.332ZM11.0169 7.68123V14.3345H11.4169V7.68123H11.0169ZM11.0695 6.64742L11.0171 7.671L11.4166 7.69146L11.469 6.66788L11.0695 6.64742ZM11.059 7.18536L11.4171 6.79235L11.1214 6.52295L10.7634 6.91596L11.059 7.18536ZM10.1201 8.20126L11.0581 7.18641L10.7643 6.91491L9.82632 7.92976L10.1201 8.20126ZM9.85971 8.38353C9.95882 8.34223 10.0478 8.27991 10.1204 8.20085L9.82595 7.93017C9.79249 7.96657 9.75152 7.99528 9.70587 8.0143L9.85971 8.38353ZM9.54641 8.44004C9.65373 8.44411 9.76061 8.42482 9.85971 8.38353L9.70587 8.0143C9.6602 8.03332 9.61099 8.0422 9.56159 8.04033L9.54641 8.44004ZM9.2693 8.39408C9.36317 8.42892 9.46308 8.44452 9.56308 8.43998L9.54492 8.04039C9.49847 8.0425 9.45207 8.03525 9.4085 8.01908L9.2693 8.39408ZM9.01675 8.23719C9.08955 8.30587 9.17543 8.35924 9.2693 8.39408L9.4085 8.01908C9.36494 8.00291 9.32507 7.97814 9.29124 7.94623L9.01675 8.23719ZM8.85153 7.99368C8.88854 8.08494 8.94431 8.1674 9.01522 8.23572L9.29277 7.94769C9.2622 7.91823 9.23816 7.88268 9.22221 7.84335L8.85153 7.99368ZM8.80039 7.70599C8.7971 7.8044 8.81452 7.90241 8.85153 7.99368L9.22221 7.84335C9.20626 7.80403 9.19875 7.76178 9.20017 7.71935L8.80039 7.70599ZM8.86277 7.41404C8.82188 7.50808 8.80063 7.60947 8.80028 7.71198L9.20028 7.71335C9.20044 7.66522 9.21042 7.61764 9.2296 7.57353L8.86277 7.41404ZM9.03805 7.16513C8.96332 7.2353 8.90366 7.31999 8.86277 7.41404L9.2296 7.57353C9.24878 7.52942 9.27677 7.48967 9.31186 7.45672L9.03805 7.16513ZM11.2357 5.05995L9.0366 7.1665L9.3133 7.45535L11.5124 5.3488L11.2357 5.05995ZM11.5171 4.86044C11.4092 4.91041 11.3116 4.98021 11.2294 5.06624L11.5187 5.34251C11.5662 5.29274 11.6227 5.25234 11.6852 5.22342L11.5171 4.86044ZM11.8176 4.80001C11.7179 4.80011 11.6192 4.81921 11.5267 4.8563L11.6756 5.22756C11.7209 5.20941 11.7692 5.20006 11.8179 5.20001L11.8176 4.80001ZM12.1173 4.85553C12.0215 4.81825 11.9194 4.79942 11.8166 4.80001L11.8189 5.20001C11.8714 5.1997 11.9234 5.20931 11.9723 5.22833L12.1173 4.85553ZM12.4116 5.07229C12.3332 4.9831 12.2371 4.91109 12.1296 4.86077L11.9601 5.22309C12.0177 5.25007 12.0692 5.28867 12.1112 5.33646L12.4116 5.07229ZM14.6006 7.16644L12.3997 5.05989L12.1231 5.34886L14.324 7.45541L14.6006 7.16644ZM14.7795 7.40772C14.7355 7.31331 14.6724 7.22912 14.5941 7.1605L14.3305 7.46135C14.3669 7.49329 14.3963 7.53249 14.4168 7.57644L14.7795 7.40772ZM14.8491 7.70874C14.8471 7.60466 14.8234 7.50213 14.7795 7.40772L14.4168 7.57644C14.4372 7.62038 14.4483 7.66811 14.4492 7.71659L14.8491 7.70874ZM14.7935 7.99887C14.833 7.90675 14.852 7.80713 14.8491 7.70694L14.4493 7.7184C14.4505 7.76057 14.4425 7.80251 14.4259 7.8413L14.7935 7.99887ZM14.6205 8.24042C14.695 8.1734 14.754 8.09098 14.7935 7.99887L14.4259 7.8413C14.4092 7.8801 14.3844 7.91478 14.353 7.94299L14.6205 8.24042ZM14.0803 8.44008C14.2802 8.44655 14.4748 8.37434 14.6221 8.23897L14.3514 7.94444C14.2812 8.00896 14.1885 8.04337 14.0932 8.04029L14.0803 8.44008ZM13.7838 8.38362C13.8823 8.42574 13.9891 8.445 14.0961 8.43996L14.0773 8.0404C14.0306 8.0426 13.984 8.03419 13.9409 8.0158L13.7838 8.38362ZM13.5271 8.1968C13.5975 8.27764 13.6852 8.34151 13.7838 8.38362L13.9409 8.0158C13.8979 7.99742 13.8596 7.96953 13.8289 7.93423L13.5271 8.1968ZM12.5932 7.18641L13.5311 8.20126L13.8249 7.92976L12.8869 6.91491L12.5932 7.18641ZM12.2327 6.79271L12.5925 7.18572L12.8875 6.91561L12.5277 6.52259L12.2327 6.79271ZM12.6323 7.671L12.5799 6.64742L12.1805 6.66788L12.2329 7.69146L12.6323 7.671ZM12.6326 14.3362V7.68123H12.2326V14.3362H12.6326ZM12.5748 14.642C12.6157 14.5435 12.6354 14.4375 12.6325 14.3309L12.2327 14.3416C12.234 14.392 12.2247 14.4421 12.2054 14.4887L12.5748 14.642ZM12.3954 14.9025C12.4728 14.8292 12.534 14.7405 12.5748 14.642L12.2054 14.4887C12.186 14.5353 12.1571 14.5773 12.1205 14.6119L12.3954 14.9025ZM12.1348 15.0733C12.2334 15.0333 12.3232 14.9742 12.3988 14.8992L12.1171 14.6152C12.0792 14.6528 12.0342 14.6825 11.9847 14.7025L12.1348 15.0733ZM8.17466 20.4192H15.8253V20.0192H8.17466V20.4192ZM6.40494 19.831C6.81918 20.2373 7.42187 20.4216 8.17531 20.4192L8.17402 20.0192C7.48117 20.0214 6.99741 19.8518 6.68502 19.5454L6.40494 19.831ZM5.8 18.076C5.8 18.8257 5.98976 19.4238 6.40494 19.831L6.68502 19.5454C6.37356 19.2399 6.2 18.7632 6.2 18.076H5.8ZM5.8 11.5188V18.076H6.2V11.5188H5.8ZM6.40447 9.76421C5.98991 10.1735 5.8 10.771 5.8 11.5188H6.2C6.2 10.8342 6.3734 10.357 6.68548 10.0489L6.40447 9.76421ZM8.17466 9.16855C7.42101 9.16855 6.81845 9.35554 6.40447 9.76421L6.68548 10.0489C6.99814 9.74022 7.48203 9.56855 8.17466 9.56855V9.16855ZM10.0035 9.16855H8.17466V9.56855H10.0035V9.16855ZM10.2035 10.6052V9.36855H9.80348V10.6052H10.2035ZM8.18688 10.8052H10.0035V10.4052H8.18688V10.8052ZM7.86652 10.8387C7.96215 10.8048 8.06418 10.793 8.16504 10.804L8.20873 10.4064C8.04796 10.3888 7.8853 10.4077 7.73286 10.4617L7.86652 10.8387ZM7.61279 10.9998C7.68414 10.9277 7.77088 10.8726 7.86652 10.8387L7.73286 10.4617C7.58043 10.5157 7.44216 10.6035 7.32842 10.7185L7.61279 10.9998ZM7.45444 11.2553C7.48731 11.1593 7.54144 11.0719 7.61279 10.9998L7.32842 10.7185C7.21467 10.8335 7.12839 10.9727 7.07601 11.1257L7.45444 11.2553ZM7.42301 11.5542C7.41084 11.4534 7.42158 11.3513 7.45444 11.2553L7.07601 11.1257C7.02362 11.2787 7.0065 11.4416 7.0259 11.6022L7.42301 11.5542ZM7.42446 18.0096V11.5782H7.02446V18.0096H7.42446ZM7.46361 18.3356C7.42926 18.2359 7.41574 18.1302 7.42386 18.025L7.02505 17.9942C7.01271 18.1539 7.03325 18.3144 7.08543 18.4659L7.46361 18.3356ZM7.62358 18.6048C7.55241 18.5269 7.49797 18.4353 7.46361 18.3356L7.08543 18.4659C7.1376 18.6173 7.22028 18.7565 7.32837 18.8747L7.62358 18.6048ZM8.16488 18.7828C7.96103 18.7928 7.76125 18.7233 7.60753 18.5891L7.34442 18.8904C7.57611 19.0927 7.87722 19.1973 8.18445 19.1823L8.16488 18.7828ZM15.8078 18.7825H8.17466V19.1825H15.8078V18.7825ZM16.389 18.589C16.2322 18.7259 16.0278 18.7956 15.82 18.7829L15.7957 19.1822C16.1084 19.2012 16.416 19.0964 16.652 18.8904L16.389 18.589ZM16.5329 18.3356C16.4985 18.4353 16.4441 18.5269 16.3729 18.6048L16.6681 18.8747C16.7762 18.7565 16.8589 18.6173 16.9111 18.4659L16.5329 18.3356ZM16.5726 18.025C16.5808 18.1302 16.5672 18.2359 16.5329 18.3356L16.9111 18.4659C16.9632 18.3144 16.9838 18.1539 16.9714 17.9942L16.5726 18.025ZM16.572 11.5712V18.0096H16.972V11.5712H16.572ZM16.5329 11.2452C16.5672 11.3449 16.5808 11.4506 16.5726 11.5558L16.9714 11.5866C16.9838 11.4269 16.9632 11.2663 16.9111 11.1149L16.5329 11.2452ZM16.3729 10.976C16.4441 11.0538 16.4985 11.1455 16.5329 11.2452L16.9111 11.1149C16.8589 10.9634 16.7762 10.8243 16.6681 10.7061L16.3729 10.976ZM15.8206 10.7978C16.0281 10.7846 16.2323 10.8542 16.3886 10.9913L16.6525 10.6907C16.4166 10.4837 16.1083 10.3787 15.7951 10.3987L15.8206 10.7978ZM13.9913 10.7982H15.8078V10.3982H13.9913V10.7982ZM13.7913 9.36156V10.5982H14.1913V9.36156H13.7913ZM15.8253 9.16156H13.9913V9.56156H15.8253V9.16156ZM17.599 9.75722C17.1872 9.35069 16.5833 9.16399 15.826 9.16157L15.8247 9.56156C16.523 9.5638 17.0079 9.73577 17.318 10.0419L17.599 9.75722ZM18.2 11.5118C18.2 10.7624 18.0116 10.1645 17.599 9.75722L17.318 10.0419C17.6274 10.3473 17.8 10.8242 17.8 11.5118H18.2ZM18.2 18.069V11.5118H17.8V18.069H18.2ZM17.5992 19.8233C18.0126 19.4139 18.2012 18.8163 18.2 18.0687L17.8 18.0693C17.8011 18.754 17.6287 19.2312 17.3178 19.5391L17.5992 19.8233ZM15.8253 20.4192C16.5821 20.4192 17.1862 20.2324 17.5992 19.8233L17.3178 19.5391C17.0065 19.8474 16.5218 20.0192 15.8253 20.0192V20.4192Z" fill="#AFAFAF" mask="url(#path-1-inside-1_5_24)"/>
</svg>
