<svg width="50" height="50" viewBox="0 0 50 50" fill="none" xmlns="http://www.w3.org/2000/svg">
<rect x="5.5" y="3.5" width="38.7674" height="38.7674" rx="7.5" fill="#128450" stroke="#353535" stroke-width="5"/>
<rect x="9.5" y="7.5" width="30.7674" height="30.7674" rx="3.5" fill="#FF6B00" stroke="#FFE071" stroke-width="3"/>
<rect x="9.5" y="7.5" width="30.7674" height="30.7674" rx="3.5" fill="#7D19BA" stroke="#E7A3FF" stroke-width="3"/>
<path d="M24.8839 50L28.8717 43.093H20.8962L24.8839 50Z" fill="#353535"/>
<g clip-path="url(#clip0_200_25993)">
<path d="M14.5531 29.6326C14.5287 30.2149 14.7266 30.7847 15.1066 31.2265V33.9938C15.1021 34.18 15.1361 34.3651 15.2066 34.5375C15.2771 34.7099 15.3825 34.8658 15.5161 34.9955C15.6507 35.1277 15.8104 35.2316 15.9858 35.301C16.1612 35.3703 16.3487 35.4039 16.5373 35.3996H17.7936C17.9822 35.4044 18.1699 35.371 18.3453 35.3016C18.5208 35.2322 18.6805 35.1281 18.8147 34.9955C18.9488 34.866 19.0546 34.7101 19.1255 34.5377C19.1965 34.3653 19.231 34.1802 19.2271 33.9938V32.2532C20.1107 32.3141 21.0405 32.3611 22.0165 32.3943C22.9933 32.4247 24.0061 32.4414 25.0605 32.4414C26.1148 32.4414 27.1165 32.4247 28.1045 32.3943C29.0924 32.3639 30.0139 32.3141 30.8967 32.2532V33.9938C30.892 34.1803 30.9263 34.3656 30.9973 34.5381C31.0683 34.7106 31.1744 34.8664 31.309 34.9955C31.4429 35.1279 31.602 35.2319 31.777 35.3013C31.952 35.3707 32.1391 35.4041 32.3273 35.3996H33.5975C33.784 35.4036 33.9693 35.3699 34.1424 35.3004C34.3155 35.231 34.4728 35.1273 34.6048 34.9955C34.7388 34.866 34.8446 34.7101 34.9156 34.5377C34.9865 34.3653 35.0211 34.1802 35.0171 33.9938V31.2265C35.3962 30.7841 35.5939 30.2147 35.5706 29.6326V13.2033C35.5872 12.9008 35.5432 12.5981 35.441 12.3129C35.3388 12.0278 35.1806 11.7659 34.9756 11.5429C34.5101 11.1 33.9016 10.8379 33.2599 10.8041C32.153 10.6712 30.8828 10.5707 29.4494 10.5024C28.0159 10.4342 26.5613 10.4 25.0854 10.4C23.6095 10.4 22.1548 10.4342 20.7214 10.5024C19.288 10.5707 18.0021 10.6694 16.8638 10.7985C16.2201 10.8343 15.6096 11.0959 15.1398 11.5374C14.934 11.76 14.7748 12.0217 14.6717 12.3068C14.5685 12.592 14.5235 12.8949 14.5393 13.1977L14.5531 29.6326ZM25.0383 30.8751C23.4518 30.8751 22.0063 30.8437 20.702 30.781C19.3977 30.7183 18.2668 30.626 17.3093 30.5043C17.1339 30.4983 16.9614 30.4567 16.8026 30.382C16.6437 30.3073 16.5016 30.2011 16.3851 30.0698C16.1899 29.7898 16.0926 29.4532 16.1083 29.1123V13.7152C16.0913 13.3731 16.2017 13.0369 16.4183 12.7716C16.6448 12.5183 16.9576 12.3585 17.2955 12.3233C18.2179 12.2144 19.3626 12.1222 20.7297 12.0466C22.0967 11.9709 23.5283 11.9377 25.0245 11.9469C26.5299 11.9469 27.9624 11.9801 29.3221 12.0466C30.6817 12.113 31.8255 12.2052 32.7535 12.3233C32.9298 12.3296 33.103 12.3719 33.2625 12.4475C33.4219 12.5232 33.5641 12.6306 33.6805 12.7633C33.8727 13.0426 33.9697 13.3764 33.9573 13.7152V29.1206C33.9717 29.4614 33.8746 29.7976 33.6805 30.0781C33.5633 30.2093 33.4208 30.3155 33.2614 30.3902C33.1021 30.4648 32.9293 30.5065 32.7535 30.5126C31.7979 30.6288 30.6679 30.721 29.3636 30.7893C28.0593 30.8575 26.6129 30.8861 25.0245 30.8751H25.0383ZM15.3224 20.7607V14.3655H14.0799C13.798 14.359 13.5238 14.4576 13.3106 14.6423C13.2086 14.7309 13.1278 14.8413 13.0741 14.9653C13.0205 15.0894 12.9954 15.2239 13.0007 15.359V19.7866C12.9959 19.9224 13.0212 20.0576 13.0748 20.1824C13.1284 20.3073 13.2089 20.4188 13.3106 20.5089C13.5224 20.6959 13.7976 20.7949 14.0799 20.7856L15.3224 20.7607ZM34.7266 20.7607H35.9691C36.2543 20.7722 36.5328 20.673 36.7467 20.484C36.8466 20.3928 36.9256 20.281 36.9782 20.1563C37.0307 20.0316 37.0556 19.897 37.0511 19.7617V15.3341C37.0561 15.1996 37.0314 15.0656 36.9788 14.9418C36.9262 14.8179 36.8469 14.7071 36.7467 14.6173C36.5318 14.43 36.2539 14.3311 35.9691 14.3406H34.7266V20.7607ZM18.9808 29.3392C19.1587 29.3403 19.335 29.3061 19.4995 29.2384C19.664 29.1708 19.8135 29.0711 19.9391 28.9452C20.0648 28.8193 20.1641 28.6696 20.2315 28.505C20.2988 28.3403 20.3327 28.1639 20.3312 27.986C20.3353 27.8088 20.3025 27.6326 20.2348 27.4688C20.1672 27.3049 20.0662 27.1569 19.9382 27.0341C19.8129 26.9086 19.6635 26.8098 19.4989 26.7437C19.3344 26.6776 19.1581 26.6455 18.9808 26.6495C18.8043 26.6465 18.629 26.679 18.4654 26.7451C18.3017 26.8111 18.153 26.9094 18.028 27.0341C17.9031 27.1588 17.8045 27.3073 17.7381 27.4708C17.6717 27.6344 17.6388 27.8096 17.6414 27.986C17.6376 28.164 17.67 28.3409 17.7366 28.5059C17.8032 28.671 17.9026 28.8208 18.0288 28.9463C18.1513 29.0746 18.2992 29.1759 18.4632 29.2436C18.6271 29.3113 18.8035 29.3438 18.9808 29.3392ZM22.5339 28.9325H27.5344C27.6638 28.9392 27.7931 28.9187 27.914 28.8723C28.0349 28.8259 28.1447 28.7546 28.2363 28.663C28.3279 28.5714 28.3992 28.4616 28.4456 28.3407C28.492 28.2198 28.5125 28.0905 28.5057 27.9611C28.5098 27.8334 28.4872 27.7062 28.4396 27.5876C28.392 27.469 28.3203 27.3616 28.229 27.2721C28.1375 27.1805 28.0281 27.1087 27.9076 27.0611C27.7872 27.0135 27.6583 26.9911 27.5289 26.9954H22.5284C22.3986 26.9911 22.2692 27.0134 22.1483 27.061C22.0275 27.1086 21.9176 27.1804 21.8255 27.2721C21.7348 27.362 21.6635 27.4695 21.6159 27.588C21.5683 27.7065 21.5455 27.8335 21.5488 27.9611C21.542 28.0907 21.5626 28.2203 21.6091 28.3414C21.6557 28.4625 21.7273 28.5725 21.8192 28.6641C21.9111 28.7557 22.0212 28.827 22.1425 28.8732C22.2637 28.9194 22.3933 28.9396 22.5229 28.9325H22.5339ZM31.0876 29.3392C31.2655 29.3403 31.4418 29.3061 31.6063 29.2384C31.7708 29.1708 31.9203 29.0711 32.0459 28.9452C32.1716 28.8193 32.271 28.6696 32.3383 28.505C32.4056 28.3403 32.4395 28.1639 32.438 27.986C32.4421 27.8088 32.4093 27.6326 32.3416 27.4688C32.274 27.3049 32.173 27.1569 32.0451 27.0341C31.9198 26.9086 31.7703 26.8098 31.6057 26.7437C31.4412 26.6776 31.2649 26.6455 31.0876 26.6495C30.9111 26.6465 30.7358 26.679 30.5722 26.7451C30.4085 26.8111 30.2598 26.9094 30.1349 27.0341C30.0099 27.1588 29.9113 27.3073 29.8449 27.4708C29.7785 27.6344 29.7456 27.8096 29.7482 27.986C29.7444 28.164 29.7768 28.3409 29.8434 28.5059C29.91 28.671 30.0094 28.8208 30.1357 28.9463C30.2572 29.0736 30.4038 29.1742 30.5662 29.2419C30.7286 29.3095 30.9034 29.3427 31.0793 29.3392H31.0876Z" fill="white"/>
<path d="M18.3375 24.2188L18.2763 24.2086H18.2732C18.1039 24.1705 18.0467 24.1144 18.0266 24.0897C18.0025 24.06 17.9482 23.9713 17.9513 23.737L17.9514 23.737V23.7272V14.811C17.9514 14.4999 18.0245 14.3719 18.0675 14.3219C18.1051 14.2781 18.1994 14.2004 18.4655 14.1737C19.4614 14.0756 20.5176 14.0018 21.6344 13.9525C22.7521 13.9032 23.8895 13.8785 25.0466 13.8785C26.2 13.8785 27.3393 13.9032 28.4645 13.9525C29.5874 14.0018 30.6441 14.0754 31.635 14.1734C31.8919 14.202 31.9848 14.2791 32.0231 14.3245C32.0676 14.3771 32.139 14.5066 32.139 14.811L32.139 23.7272L32.139 23.7292C32.1397 23.9651 32.0846 24.0572 32.0582 24.0897C32.0346 24.1188 31.9675 24.1832 31.7604 24.2199C30.7528 24.395 29.6736 24.525 28.5361 24.6092C27.3964 24.6935 26.2277 24.7344 25.0383 24.7344C23.8513 24.7344 22.6915 24.6881 21.5505 24.601C20.411 24.514 19.3429 24.3864 18.3375 24.2188Z" stroke="white" stroke-width="1.5"/>
</g>
<defs>
<clipPath id="clip0_200_25993">
<rect width="25" height="25" fill="white" transform="translate(12.5 10.4)"/>
</clipPath>
</defs>
</svg>
