<svg width="50" height="50" viewBox="0 0 50 50" fill="none" xmlns="http://www.w3.org/2000/svg">
<rect x="5.5" y="3.5" width="38.7674" height="38.7674" rx="7.5" fill="#128450" stroke="#353535" stroke-width="5"/>
<rect x="9.5" y="7.5" width="30.7674" height="30.7674" rx="3.5" fill="#459BFF" stroke="#23EAF7" stroke-width="3"/>
<rect x="9.5" y="7.5" width="30.7674" height="30.7674" rx="3.5" fill="#45BCFF" stroke="#23EAF7" stroke-width="3"/>
<path d="M24.8839 50L28.8717 43.093H20.8962L24.8839 50Z" fill="#353535"/>
<circle cx="25" cy="23" r="10" stroke="white" stroke-width="2"/>
<path d="M26.1905 17.27C27.3465 17.27 28.1681 17.576 28.6555 18.188C29.1541 18.8 29.4035 19.7237 29.4035 20.959C29.4035 22.2057 29.1485 23.135 28.6385 23.747C28.1398 24.359 27.3238 24.665 26.1905 24.665H25.1025V29H23.0285V17.27H26.1905ZM26.1225 22.778C26.5645 22.778 26.8705 22.6307 27.0405 22.336C27.2218 22.0413 27.3125 21.5823 27.3125 20.959C27.3125 20.3357 27.2218 19.8767 27.0405 19.582C26.8705 19.2873 26.5645 19.14 26.1225 19.14H25.1025V22.778H26.1225Z" fill="white"/>
</svg>
