<svg width="50" height="50" viewBox="0 0 50 50" fill="none" xmlns="http://www.w3.org/2000/svg">
<rect x="5.5" y="3.5" width="38.7674" height="38.7674" rx="7.5" fill="#FFD913" stroke="#353535" stroke-width="5"/>
<rect x="9.5" y="7.5" width="30.7674" height="30.7674" rx="3.5" fill="#FFA800" fill-opacity="0.94" stroke="#FAFF13" stroke-width="3"/>
<path d="M24.8839 50L28.8717 43.093H20.8962L24.8839 50Z" fill="#353535"/>
<path d="M16.2453 25.144C15.2253 25.144 14.4033 24.832 13.7793 24.208C13.1553 23.572 12.8433 22.63 12.8433 21.382V16.198C12.8433 14.938 13.1493 13.996 13.7613 13.372C14.3853 12.736 15.2073 12.418 16.2273 12.418C17.2113 12.418 18.0153 12.718 18.6393 13.318C19.2633 13.918 19.5753 14.824 19.5753 16.036V16.198H18.2613V16.072C18.2613 15.22 18.0753 14.596 17.7033 14.2C17.3433 13.804 16.8573 13.606 16.2453 13.606C15.5493 13.606 15.0273 13.828 14.6793 14.272C14.3313 14.704 14.1573 15.388 14.1573 16.324V21.4C14.1573 23.104 14.8533 23.956 16.2453 23.956C16.8693 23.956 17.3613 23.758 17.7213 23.362C18.0813 22.966 18.2613 22.36 18.2613 21.544V21.382H19.5393V21.562C19.5393 22.762 19.2333 23.662 18.6213 24.262C18.0093 24.85 17.2173 25.144 16.2453 25.144ZM29.683 12.58V25H28.369V15.46L25.813 22.12H24.949L22.393 15.514V25H21.079V12.58H22.393L25.399 20.248L28.369 12.58H29.683ZM34.1546 25.126C33.0986 25.126 32.2946 24.826 31.7426 24.226C31.2026 23.626 30.9206 22.75 30.8966 21.598H32.1746C32.2106 22.438 32.3966 23.044 32.7326 23.416C33.0806 23.776 33.5726 23.956 34.2086 23.956C34.8566 23.956 35.3366 23.776 35.6486 23.416C35.9726 23.044 36.1346 22.48 36.1346 21.724C36.1346 21.064 35.9906 20.566 35.7026 20.23C35.4266 19.894 34.9226 19.576 34.1906 19.276L33.4706 18.988C32.6546 18.664 32.0426 18.25 31.6346 17.746C31.2266 17.242 31.0226 16.564 31.0226 15.712C31.0226 14.704 31.3046 13.9 31.8686 13.3C32.4446 12.7 33.2306 12.4 34.2266 12.4C35.1746 12.4 35.9246 12.682 36.4766 13.246C37.0286 13.798 37.3286 14.632 37.3766 15.748H36.1346C36.0506 14.296 35.4086 13.57 34.2086 13.57C33.5846 13.57 33.1166 13.75 32.8046 14.11C32.4926 14.47 32.3366 14.98 32.3366 15.64C32.3366 16.228 32.4746 16.69 32.7506 17.026C33.0386 17.362 33.5246 17.662 34.2086 17.926L34.9466 18.214C35.7746 18.538 36.3986 18.964 36.8186 19.492C37.2386 20.02 37.4486 20.758 37.4486 21.706C37.4486 22.798 37.1666 23.644 36.6026 24.244C36.0386 24.832 35.2226 25.126 34.1546 25.126Z" fill="white"/>
<path d="M16.7453 25.144C15.7253 25.144 14.9033 24.832 14.2793 24.208C13.6553 23.572 13.3433 22.63 13.3433 21.382V16.198C13.3433 14.938 13.6493 13.996 14.2613 13.372C14.8853 12.736 15.7073 12.418 16.7273 12.418C17.7113 12.418 18.5153 12.718 19.1393 13.318C19.7633 13.918 20.0753 14.824 20.0753 16.036V16.198H18.7613V16.072C18.7613 15.22 18.5753 14.596 18.2033 14.2C17.8433 13.804 17.3573 13.606 16.7453 13.606C16.0493 13.606 15.5273 13.828 15.1793 14.272C14.8313 14.704 14.6573 15.388 14.6573 16.324V21.4C14.6573 23.104 15.3533 23.956 16.7453 23.956C17.3693 23.956 17.8613 23.758 18.2213 23.362C18.5813 22.966 18.7613 22.36 18.7613 21.544V21.382H20.0393V21.562C20.0393 22.762 19.7333 23.662 19.1213 24.262C18.5093 24.85 17.7173 25.144 16.7453 25.144ZM30.183 12.58V25H28.869V15.46L26.313 22.12H25.449L22.893 15.514V25H21.579V12.58H22.893L25.899 20.248L28.869 12.58H30.183ZM34.6546 25.126C33.5986 25.126 32.7946 24.826 32.2426 24.226C31.7026 23.626 31.4206 22.75 31.3966 21.598H32.6746C32.7106 22.438 32.8966 23.044 33.2326 23.416C33.5806 23.776 34.0726 23.956 34.7086 23.956C35.3566 23.956 35.8366 23.776 36.1486 23.416C36.4726 23.044 36.6346 22.48 36.6346 21.724C36.6346 21.064 36.4906 20.566 36.2026 20.23C35.9266 19.894 35.4226 19.576 34.6906 19.276L33.9706 18.988C33.1546 18.664 32.5426 18.25 32.1346 17.746C31.7266 17.242 31.5226 16.564 31.5226 15.712C31.5226 14.704 31.8046 13.9 32.3686 13.3C32.9446 12.7 33.7306 12.4 34.7266 12.4C35.6746 12.4 36.4246 12.682 36.9766 13.246C37.5286 13.798 37.8286 14.632 37.8766 15.748H36.6346C36.5506 14.296 35.9086 13.57 34.7086 13.57C34.0846 13.57 33.6166 13.75 33.3046 14.11C32.9926 14.47 32.8366 14.98 32.8366 15.64C32.8366 16.228 32.9746 16.69 33.2506 17.026C33.5386 17.362 34.0246 17.662 34.7086 17.926L35.4466 18.214C36.2746 18.538 36.8986 18.964 37.3186 19.492C37.7386 20.02 37.9486 20.758 37.9486 21.706C37.9486 22.798 37.6666 23.644 37.1026 24.244C36.5386 24.832 35.7226 25.126 34.6546 25.126Z" fill="white"/>
<path fill-rule="evenodd" clip-rule="evenodd" d="M25.913 25H24.413V29.389C24.256 29.4422 24.1041 29.5116 23.96 29.5964C23.5906 29.8151 23.2823 30.1234 23.0636 30.4928C23.0044 30.5933 22.9528 30.6976 22.9089 30.8048H16.6326C16.4484 30.804 16.2681 30.8579 16.1147 30.9599C15.9613 31.0618 15.8417 31.2071 15.7711 31.3772C15.7005 31.5473 15.6821 31.7346 15.7183 31.9152C15.7544 32.0958 15.8435 32.2616 15.9742 32.3914C16.0615 32.4799 16.1663 32.5491 16.282 32.5947C16.3977 32.6402 16.5216 32.661 16.6458 32.6558H22.9122C22.9553 32.7602 23.0059 32.8619 23.0636 32.9599C23.2837 33.3282 23.5917 33.6362 23.96 33.8563C24.3331 34.0805 24.7611 34.1967 25.1963 34.1922C25.6297 34.1958 26.0556 34.0796 26.4271 33.8563C26.7959 33.6369 27.1041 33.3288 27.3235 32.9599C27.3812 32.8619 27.4317 32.7602 27.4749 32.6558H33.7545C33.8765 32.6597 33.9981 32.6382 34.1114 32.5926C34.2247 32.5471 34.3274 32.4786 34.4129 32.3914C34.5002 32.3049 34.5695 32.2019 34.6168 32.0884C34.6641 31.975 34.6884 31.8533 34.6884 31.7303C34.6884 31.6074 34.6641 31.4857 34.6168 31.3722C34.5695 31.2588 34.5002 31.1558 34.4129 31.0693C34.3269 30.9827 34.2242 30.9146 34.1109 30.8691C33.9977 30.8237 33.8764 30.8018 33.7545 30.8048H27.4782C27.4343 30.6976 27.3827 30.5933 27.3235 30.4928C27.1056 30.1228 26.7971 29.8143 26.4271 29.5964C26.2644 29.5006 26.0918 29.4246 25.913 29.3693V25Z" fill="white"/>
</svg>
