<svg width="50" height="50" viewBox="0 0 50 50" fill="none" xmlns="http://www.w3.org/2000/svg">
<rect x="5.5" y="3.5" width="38.7674" height="38.7674" rx="7.5" fill="#128450" stroke="#353535" stroke-width="5"/>
<rect x="9.5" y="7.5" width="30.7674" height="30.7674" rx="3.5" fill="#137EE0" stroke="#13CBF3" stroke-width="3"/>
<path d="M24.8839 50L28.8717 43.093H20.8962L24.8839 50Z" fill="#353535"/>
<mask id="path-4-inside-1_93_1296" fill="white">
<path fill-rule="evenodd" clip-rule="evenodd" d="M24 32H17L16 34H23L24 32ZM34 32H27L26 34H33L34 32Z"/>
</mask>
<path fill-rule="evenodd" clip-rule="evenodd" d="M24 32H17L16 34H23L24 32ZM34 32H27L26 34H33L34 32Z" fill="white"/>
<path d="M17 32V31H16.382L16.1056 31.5528L17 32ZM24 32L24.8944 32.4472L25.618 31H24V32ZM16 34L15.1056 33.5528L14.382 35H16V34ZM23 34V35H23.618L23.8944 34.4472L23 34ZM27 32V31H26.382L26.1056 31.5528L27 32ZM34 32L34.8944 32.4472L35.618 31H34V32ZM26 34L25.1056 33.5528L24.382 35H26V34ZM33 34V35H33.618L33.8944 34.4472L33 34ZM17 33H24V31H17V33ZM16.8944 34.4472L17.8944 32.4472L16.1056 31.5528L15.1056 33.5528L16.8944 34.4472ZM23 33H16V35H23V33ZM23.1056 31.5528L22.1056 33.5528L23.8944 34.4472L24.8944 32.4472L23.1056 31.5528ZM27 33H34V31H27V33ZM26.8944 34.4472L27.8944 32.4472L26.1056 31.5528L25.1056 33.5528L26.8944 34.4472ZM33 33H26V35H33V33ZM33.1056 31.5528L32.1056 33.5528L33.8944 34.4472L34.8944 32.4472L33.1056 31.5528Z" fill="white" mask="url(#path-4-inside-1_93_1296)"/>
<mask id="path-6-outside-2_93_1296" maskUnits="userSpaceOnUse" x="12.0063" y="10.0082" width="27" height="21" fill="black">
<rect fill="white" x="12.0063" y="10.0082" width="27" height="21"/>
<path d="M18.124 30.0472C18.8063 30.052 19.4823 29.9154 20.1091 29.646C20.7185 29.3854 21.2729 29.0115 21.743 28.5443C22.2125 28.0786 22.5867 27.5257 22.8446 26.9167C23.3713 25.6428 23.3713 24.2121 22.8446 22.9382C22.328 21.7098 21.3526 20.7314 20.1258 20.211C18.8482 19.6845 17.4144 19.6845 16.1368 20.211C15.5269 20.4687 14.9722 20.8413 14.503 21.3085C14.033 21.7747 13.6587 22.3283 13.4013 22.9382C12.8747 24.2121 12.8747 25.6428 13.4013 26.9167C13.6607 27.5268 14.0347 28.0814 14.503 28.5506C14.9709 29.0198 15.5259 29.3934 16.1368 29.6502C16.7655 29.9158 17.4416 30.0509 18.124 30.0472ZM18.124 28.615C17.4675 28.6237 16.821 28.4542 16.2532 28.1244C15.7022 27.8021 15.2428 27.3441 14.9187 26.7941C14.5934 26.2273 14.4222 25.5852 14.4222 24.9316C14.4222 24.2781 14.5934 23.636 14.9187 23.0692C15.2439 22.5168 15.7056 22.0573 16.2595 21.7347C16.8251 21.4091 17.4662 21.2377 18.1188 21.2377C18.7714 21.2377 19.4126 21.4091 19.9782 21.7347C20.5297 22.0582 20.9892 22.5176 21.3127 23.0692C21.6395 23.6336 21.8116 24.2742 21.8116 24.9264C21.8116 25.5786 21.6395 26.2193 21.3127 26.7837C20.9892 27.3353 20.5297 27.7947 19.9782 28.1182C19.4172 28.4502 18.7759 28.622 18.124 28.615ZM32.8929 30.0472C33.5752 30.052 34.2511 29.9154 34.878 29.646C35.486 29.3863 36.0385 29.0123 36.5056 28.5443C36.9732 28.0779 37.3459 27.5251 37.6031 26.9167C38.1297 25.6428 38.1297 24.2121 37.6031 22.9382C37.085 21.7108 36.11 20.7329 34.8842 20.211C33.6103 19.6844 32.1796 19.6844 30.9057 20.211C30.2943 20.4695 29.7378 20.842 29.2656 21.3085C28.5465 22.0296 28.0576 22.9478 27.8608 23.9469C27.6639 24.946 27.768 25.981 28.1598 26.9209C28.685 28.1543 29.6699 29.1347 30.9057 29.6543C31.5345 29.9188 32.2107 30.0525 32.8929 30.0472ZM32.8929 28.6254C32.2356 28.6342 31.5884 28.4624 31.0221 28.1286C30.4683 27.806 30.0066 27.3464 29.6813 26.7941C29.356 26.2273 29.1849 25.5852 29.1849 24.9316C29.1849 24.2781 29.356 23.636 29.6813 23.0692C30.0066 22.5168 30.4683 22.0573 31.0221 21.7347C31.5884 21.4009 32.2356 21.229 32.8929 21.2379C33.5446 21.2308 34.1856 21.4042 34.7449 21.7388C35.2961 22.0655 35.7553 22.5268 36.0795 23.0795C36.4062 23.6421 36.5783 24.2811 36.5783 24.9316C36.5783 25.5822 36.4062 26.2212 36.0795 26.7837C35.7548 27.336 35.2957 27.7972 34.7449 28.1244C34.1856 28.459 33.5446 28.6324 32.8929 28.6254ZM24.0936 11.6984C24.0933 11.7917 24.1114 11.8841 24.1469 11.9703C24.1824 12.0565 24.2346 12.1349 24.3005 12.201C24.3663 12.267 24.4445 12.3194 24.5307 12.3551C24.6168 12.3909 24.7091 12.4093 24.8024 12.4093H26.8021C26.8204 12.4084 26.8387 12.4126 26.8548 12.4214C26.871 12.4302 26.8844 12.4433 26.8935 12.4592L32.6601 25.2746L33.9779 24.8277L30.9939 18.208L28.0098 11.5882C27.8615 11.2016 27.5435 11.0083 27.0557 11.0083H24.8024C24.7092 11.0071 24.6167 11.0249 24.5305 11.0606C24.4444 11.0963 24.3664 11.1493 24.3014 11.2162C24.236 11.2788 24.1839 11.3539 24.1482 11.4371C24.1125 11.5204 24.0939 11.6099 24.0936 11.7005V11.6984ZM31.1572 19.5999V18.3028L22.722 19.5292V20.8242L31.1572 19.5999ZM24.6406 25.7506V24.4515H17.781V25.7506H24.6406ZM25.4721 26.6964C25.7009 26.6978 25.9277 26.6539 26.1395 26.5673C26.3513 26.4807 26.5438 26.353 26.7061 26.1917C26.8684 26.0304 26.9972 25.8386 27.085 25.6274C27.1729 25.4161 27.2181 25.1895 27.2181 24.9607C27.2224 24.7294 27.1796 24.4995 27.0924 24.2851C27.0052 24.0708 26.8755 23.8763 26.711 23.7135C26.3813 23.3871 25.936 23.2039 25.4721 23.2039C25.0081 23.2039 24.5629 23.3871 24.2332 23.7135C24.0677 23.8761 23.9366 24.0703 23.8477 24.2845C23.7587 24.4988 23.7138 24.7288 23.7156 24.9607C23.7065 25.1881 23.7461 25.4148 23.8318 25.6256C23.9175 25.8364 24.0473 26.0264 24.2124 26.183C24.3755 26.3487 24.5705 26.4798 24.7855 26.5684C25.0005 26.657 25.2312 26.7012 25.4638 26.6985L25.4721 26.6964ZM25.4721 25.4679C25.404 25.4687 25.3365 25.4557 25.2736 25.4296C25.2107 25.4035 25.1538 25.3649 25.1062 25.3162C25.0589 25.272 25.021 25.2186 24.9949 25.1592C24.9688 25.0999 24.9551 25.0359 24.9545 24.9711C24.9537 24.9021 24.9667 24.8337 24.9928 24.7698C25.0188 24.7059 25.0574 24.6478 25.1062 24.599C25.153 24.5491 25.2097 24.5094 25.2727 24.4825C25.3357 24.4557 25.4036 24.4423 25.4721 24.4431C25.5393 24.4417 25.6061 24.4545 25.6681 24.4806C25.73 24.5068 25.7858 24.5457 25.8317 24.5949C25.88 24.6446 25.918 24.7035 25.9434 24.7681C25.9687 24.8327 25.9809 24.9018 25.9793 24.9711C25.9798 25.0363 25.9669 25.1009 25.9416 25.161C25.9162 25.221 25.8788 25.2753 25.8317 25.3203C25.7842 25.3696 25.7269 25.4083 25.6635 25.4341C25.6002 25.4598 25.5321 25.4721 25.4638 25.47L25.4721 25.4679ZM18.1323 26.0562C18.3166 26.0546 18.4977 26.0079 18.6597 25.9201C18.8217 25.8323 18.9597 25.7061 19.0616 25.5525C19.1635 25.399 19.2261 25.2228 19.2441 25.0394C19.262 24.856 19.2347 24.671 19.1646 24.5006C19.0944 24.3302 18.9835 24.1796 18.8416 24.062C18.6997 23.9445 18.5311 23.8635 18.3507 23.8262C18.1702 23.789 17.9833 23.7965 17.8065 23.8483C17.6296 23.9 17.4681 23.9944 17.3362 24.123C17.1235 24.3374 17.0046 24.6275 17.0057 24.9296C17 25.0773 17.0255 25.2246 17.0807 25.3618C17.1359 25.499 17.2194 25.623 17.3258 25.7257C17.4293 25.8324 17.5535 25.9169 17.6907 25.9741C17.8279 26.0312 17.9754 26.0599 18.124 26.0583L18.1323 26.0562ZM32.9012 26.0562C33.0489 26.059 33.1955 26.031 33.3319 25.9741C33.4682 25.9172 33.5912 25.8326 33.6932 25.7257C33.8991 25.5106 34.0141 25.2242 34.0141 24.9264C34.0141 24.6286 33.8991 24.3423 33.6932 24.1272C33.5895 24.0212 33.4652 23.9377 33.3278 23.8819C33.1905 23.8261 33.0431 23.7992 32.895 23.8029C32.7465 23.7994 32.5989 23.8259 32.461 23.8809C32.3231 23.9359 32.1978 24.0183 32.0926 24.123C31.9858 24.2284 31.9013 24.354 31.8438 24.4925C31.7863 24.631 31.7571 24.7796 31.7579 24.9296C31.7523 25.0779 31.7786 25.2256 31.8349 25.363C31.8911 25.5003 31.9762 25.624 32.0843 25.7257C32.1895 25.8331 32.3154 25.9179 32.4544 25.9751C32.5934 26.0323 32.7426 26.0606 32.8929 26.0583L32.9012 26.0562ZM25.0667 23.6803L26.2329 24.3413L31.2466 19.0532H29.5837L25.0667 23.6803ZM17.1886 24.5117L18.3464 25.1707L23.0359 20.3233L21.8989 19.5625L17.1886 24.5117ZM24.3143 24.5325L25.4721 23.6886L20.0506 14.1013L18.7016 14.3861L24.3143 24.5325ZM17.1488 13.8997C17.1494 14.0881 17.2244 14.2686 17.3576 14.4018C17.4908 14.535 17.6713 14.6101 17.8597 14.6106H21.0962C21.1892 14.6124 21.2816 14.5949 21.3674 14.5591C21.4533 14.5233 21.5308 14.4701 21.595 14.4027C21.6618 14.3377 21.7147 14.2597 21.7504 14.1736C21.7862 14.0875 21.804 13.995 21.8029 13.9018C21.8002 13.7168 21.7256 13.5402 21.5948 13.4094C21.464 13.2786 21.2873 13.204 21.1024 13.2013H17.8659C17.7731 13.2008 17.6811 13.219 17.5954 13.2547C17.5098 13.2904 17.4321 13.3429 17.367 13.4091C17.298 13.47 17.2423 13.5444 17.2033 13.6277C17.1643 13.711 17.1429 13.8015 17.1405 13.8935L17.1488 13.8997Z"/>
</mask>
<path d="M18.124 30.0472C18.8063 30.052 19.4823 29.9154 20.1091 29.646C20.7185 29.3854 21.2729 29.0115 21.743 28.5443C22.2125 28.0786 22.5867 27.5257 22.8446 26.9167C23.3713 25.6428 23.3713 24.2121 22.8446 22.9382C22.328 21.7098 21.3526 20.7314 20.1258 20.211C18.8482 19.6845 17.4144 19.6845 16.1368 20.211C15.5269 20.4687 14.9722 20.8413 14.503 21.3085C14.033 21.7747 13.6587 22.3283 13.4013 22.9382C12.8747 24.2121 12.8747 25.6428 13.4013 26.9167C13.6607 27.5268 14.0347 28.0814 14.503 28.5506C14.9709 29.0198 15.5259 29.3934 16.1368 29.6502C16.7655 29.9158 17.4416 30.0509 18.124 30.0472ZM18.124 28.615C17.4675 28.6237 16.821 28.4542 16.2532 28.1244C15.7022 27.8021 15.2428 27.3441 14.9187 26.7941C14.5934 26.2273 14.4222 25.5852 14.4222 24.9316C14.4222 24.2781 14.5934 23.636 14.9187 23.0692C15.2439 22.5168 15.7056 22.0573 16.2595 21.7347C16.8251 21.4091 17.4662 21.2377 18.1188 21.2377C18.7714 21.2377 19.4126 21.4091 19.9782 21.7347C20.5297 22.0582 20.9892 22.5176 21.3127 23.0692C21.6395 23.6336 21.8116 24.2742 21.8116 24.9264C21.8116 25.5786 21.6395 26.2193 21.3127 26.7837C20.9892 27.3353 20.5297 27.7947 19.9782 28.1182C19.4172 28.4502 18.7759 28.622 18.124 28.615ZM32.8929 30.0472C33.5752 30.052 34.2511 29.9154 34.878 29.646C35.486 29.3863 36.0385 29.0123 36.5056 28.5443C36.9732 28.0779 37.3459 27.5251 37.6031 26.9167C38.1297 25.6428 38.1297 24.2121 37.6031 22.9382C37.085 21.7108 36.11 20.7329 34.8842 20.211C33.6103 19.6844 32.1796 19.6844 30.9057 20.211C30.2943 20.4695 29.7378 20.842 29.2656 21.3085C28.5465 22.0296 28.0576 22.9478 27.8608 23.9469C27.6639 24.946 27.768 25.981 28.1598 26.9209C28.685 28.1543 29.6699 29.1347 30.9057 29.6543C31.5345 29.9188 32.2107 30.0525 32.8929 30.0472ZM32.8929 28.6254C32.2356 28.6342 31.5884 28.4624 31.0221 28.1286C30.4683 27.806 30.0066 27.3464 29.6813 26.7941C29.356 26.2273 29.1849 25.5852 29.1849 24.9316C29.1849 24.2781 29.356 23.636 29.6813 23.0692C30.0066 22.5168 30.4683 22.0573 31.0221 21.7347C31.5884 21.4009 32.2356 21.229 32.8929 21.2379C33.5446 21.2308 34.1856 21.4042 34.7449 21.7388C35.2961 22.0655 35.7553 22.5268 36.0795 23.0795C36.4062 23.6421 36.5783 24.2811 36.5783 24.9316C36.5783 25.5822 36.4062 26.2212 36.0795 26.7837C35.7548 27.336 35.2957 27.7972 34.7449 28.1244C34.1856 28.459 33.5446 28.6324 32.8929 28.6254ZM24.0936 11.6984C24.0933 11.7917 24.1114 11.8841 24.1469 11.9703C24.1824 12.0565 24.2346 12.1349 24.3005 12.201C24.3663 12.267 24.4445 12.3194 24.5307 12.3551C24.6168 12.3909 24.7091 12.4093 24.8024 12.4093H26.8021C26.8204 12.4084 26.8387 12.4126 26.8548 12.4214C26.871 12.4302 26.8844 12.4433 26.8935 12.4592L32.6601 25.2746L33.9779 24.8277L30.9939 18.208L28.0098 11.5882C27.8615 11.2016 27.5435 11.0083 27.0557 11.0083H24.8024C24.7092 11.0071 24.6167 11.0249 24.5305 11.0606C24.4444 11.0963 24.3664 11.1493 24.3014 11.2162C24.236 11.2788 24.1839 11.3539 24.1482 11.4371C24.1125 11.5204 24.0939 11.6099 24.0936 11.7005V11.6984ZM31.1572 19.5999V18.3028L22.722 19.5292V20.8242L31.1572 19.5999ZM24.6406 25.7506V24.4515H17.781V25.7506H24.6406ZM25.4721 26.6964C25.7009 26.6978 25.9277 26.6539 26.1395 26.5673C26.3513 26.4807 26.5438 26.353 26.7061 26.1917C26.8684 26.0304 26.9972 25.8386 27.085 25.6274C27.1729 25.4161 27.2181 25.1895 27.2181 24.9607C27.2224 24.7294 27.1796 24.4995 27.0924 24.2851C27.0052 24.0708 26.8755 23.8763 26.711 23.7135C26.3813 23.3871 25.936 23.2039 25.4721 23.2039C25.0081 23.2039 24.5629 23.3871 24.2332 23.7135C24.0677 23.8761 23.9366 24.0703 23.8477 24.2845C23.7587 24.4988 23.7138 24.7288 23.7156 24.9607C23.7065 25.1881 23.7461 25.4148 23.8318 25.6256C23.9175 25.8364 24.0473 26.0264 24.2124 26.183C24.3755 26.3487 24.5705 26.4798 24.7855 26.5684C25.0005 26.657 25.2312 26.7012 25.4638 26.6985L25.4721 26.6964ZM25.4721 25.4679C25.404 25.4687 25.3365 25.4557 25.2736 25.4296C25.2107 25.4035 25.1538 25.3649 25.1062 25.3162C25.0589 25.272 25.021 25.2186 24.9949 25.1592C24.9688 25.0999 24.9551 25.0359 24.9545 24.9711C24.9537 24.9021 24.9667 24.8337 24.9928 24.7698C25.0188 24.7059 25.0574 24.6478 25.1062 24.599C25.153 24.5491 25.2097 24.5094 25.2727 24.4825C25.3357 24.4557 25.4036 24.4423 25.4721 24.4431C25.5393 24.4417 25.6061 24.4545 25.6681 24.4806C25.73 24.5068 25.7858 24.5457 25.8317 24.5949C25.88 24.6446 25.918 24.7035 25.9434 24.7681C25.9687 24.8327 25.9809 24.9018 25.9793 24.9711C25.9798 25.0363 25.9669 25.1009 25.9416 25.161C25.9162 25.221 25.8788 25.2753 25.8317 25.3203C25.7842 25.3696 25.7269 25.4083 25.6635 25.4341C25.6002 25.4598 25.5321 25.4721 25.4638 25.47L25.4721 25.4679ZM18.1323 26.0562C18.3166 26.0546 18.4977 26.0079 18.6597 25.9201C18.8217 25.8323 18.9597 25.7061 19.0616 25.5525C19.1635 25.399 19.2261 25.2228 19.2441 25.0394C19.262 24.856 19.2347 24.671 19.1646 24.5006C19.0944 24.3302 18.9835 24.1796 18.8416 24.062C18.6997 23.9445 18.5311 23.8635 18.3507 23.8262C18.1702 23.789 17.9833 23.7965 17.8065 23.8483C17.6296 23.9 17.4681 23.9944 17.3362 24.123C17.1235 24.3374 17.0046 24.6275 17.0057 24.9296C17 25.0773 17.0255 25.2246 17.0807 25.3618C17.1359 25.499 17.2194 25.623 17.3258 25.7257C17.4293 25.8324 17.5535 25.9169 17.6907 25.9741C17.8279 26.0312 17.9754 26.0599 18.124 26.0583L18.1323 26.0562ZM32.9012 26.0562C33.0489 26.059 33.1955 26.031 33.3319 25.9741C33.4682 25.9172 33.5912 25.8326 33.6932 25.7257C33.8991 25.5106 34.0141 25.2242 34.0141 24.9264C34.0141 24.6286 33.8991 24.3423 33.6932 24.1272C33.5895 24.0212 33.4652 23.9377 33.3278 23.8819C33.1905 23.8261 33.0431 23.7992 32.895 23.8029C32.7465 23.7994 32.5989 23.8259 32.461 23.8809C32.3231 23.9359 32.1978 24.0183 32.0926 24.123C31.9858 24.2284 31.9013 24.354 31.8438 24.4925C31.7863 24.631 31.7571 24.7796 31.7579 24.9296C31.7523 25.0779 31.7786 25.2256 31.8349 25.363C31.8911 25.5003 31.9762 25.624 32.0843 25.7257C32.1895 25.8331 32.3154 25.9179 32.4544 25.9751C32.5934 26.0323 32.7426 26.0606 32.8929 26.0583L32.9012 26.0562ZM25.0667 23.6803L26.2329 24.3413L31.2466 19.0532H29.5837L25.0667 23.6803ZM17.1886 24.5117L18.3464 25.1707L23.0359 20.3233L21.8989 19.5625L17.1886 24.5117ZM24.3143 24.5325L25.4721 23.6886L20.0506 14.1013L18.7016 14.3861L24.3143 24.5325ZM17.1488 13.8997C17.1494 14.0881 17.2244 14.2686 17.3576 14.4018C17.4908 14.535 17.6713 14.6101 17.8597 14.6106H21.0962C21.1892 14.6124 21.2816 14.5949 21.3674 14.5591C21.4533 14.5233 21.5308 14.4701 21.595 14.4027C21.6618 14.3377 21.7147 14.2597 21.7504 14.1736C21.7862 14.0875 21.804 13.995 21.8029 13.9018C21.8002 13.7168 21.7256 13.5402 21.5948 13.4094C21.464 13.2786 21.2873 13.204 21.1024 13.2013H17.8659C17.7731 13.2008 17.6811 13.219 17.5954 13.2547C17.5098 13.2904 17.4321 13.3429 17.367 13.4091C17.298 13.47 17.2423 13.5444 17.2033 13.6277C17.1643 13.711 17.1429 13.8015 17.1405 13.8935L17.1488 13.8997Z" fill="white"/>
<path d="M18.124 30.0472C18.8063 30.052 19.4823 29.9154 20.1091 29.646C20.7185 29.3854 21.2729 29.0115 21.743 28.5443C22.2125 28.0786 22.5867 27.5257 22.8446 26.9167C23.3713 25.6428 23.3713 24.2121 22.8446 22.9382C22.328 21.7098 21.3526 20.7314 20.1258 20.211C18.8482 19.6845 17.4144 19.6845 16.1368 20.211C15.5269 20.4687 14.9722 20.8413 14.503 21.3085C14.033 21.7747 13.6587 22.3283 13.4013 22.9382C12.8747 24.2121 12.8747 25.6428 13.4013 26.9167C13.6607 27.5268 14.0347 28.0814 14.503 28.5506C14.9709 29.0198 15.5259 29.3934 16.1368 29.6502C16.7655 29.9158 17.4416 30.0509 18.124 30.0472ZM18.124 28.615C17.4675 28.6237 16.821 28.4542 16.2532 28.1244C15.7022 27.8021 15.2428 27.3441 14.9187 26.7941C14.5934 26.2273 14.4222 25.5852 14.4222 24.9316C14.4222 24.2781 14.5934 23.636 14.9187 23.0692C15.2439 22.5168 15.7056 22.0573 16.2595 21.7347C16.8251 21.4091 17.4662 21.2377 18.1188 21.2377C18.7714 21.2377 19.4126 21.4091 19.9782 21.7347C20.5297 22.0582 20.9892 22.5176 21.3127 23.0692C21.6395 23.6336 21.8116 24.2742 21.8116 24.9264C21.8116 25.5786 21.6395 26.2193 21.3127 26.7837C20.9892 27.3353 20.5297 27.7947 19.9782 28.1182C19.4172 28.4502 18.7759 28.622 18.124 28.615ZM32.8929 30.0472C33.5752 30.052 34.2511 29.9154 34.878 29.646C35.486 29.3863 36.0385 29.0123 36.5056 28.5443C36.9732 28.0779 37.3459 27.5251 37.6031 26.9167C38.1297 25.6428 38.1297 24.2121 37.6031 22.9382C37.085 21.7108 36.11 20.7329 34.8842 20.211C33.6103 19.6844 32.1796 19.6844 30.9057 20.211C30.2943 20.4695 29.7378 20.842 29.2656 21.3085C28.5465 22.0296 28.0576 22.9478 27.8608 23.9469C27.6639 24.946 27.768 25.981 28.1598 26.9209C28.685 28.1543 29.6699 29.1347 30.9057 29.6543C31.5345 29.9188 32.2107 30.0525 32.8929 30.0472ZM32.8929 28.6254C32.2356 28.6342 31.5884 28.4624 31.0221 28.1286C30.4683 27.806 30.0066 27.3464 29.6813 26.7941C29.356 26.2273 29.1849 25.5852 29.1849 24.9316C29.1849 24.2781 29.356 23.636 29.6813 23.0692C30.0066 22.5168 30.4683 22.0573 31.0221 21.7347C31.5884 21.4009 32.2356 21.229 32.8929 21.2379C33.5446 21.2308 34.1856 21.4042 34.7449 21.7388C35.2961 22.0655 35.7553 22.5268 36.0795 23.0795C36.4062 23.6421 36.5783 24.2811 36.5783 24.9316C36.5783 25.5822 36.4062 26.2212 36.0795 26.7837C35.7548 27.336 35.2957 27.7972 34.7449 28.1244C34.1856 28.459 33.5446 28.6324 32.8929 28.6254ZM24.0936 11.6984C24.0933 11.7917 24.1114 11.8841 24.1469 11.9703C24.1824 12.0565 24.2346 12.1349 24.3005 12.201C24.3663 12.267 24.4445 12.3194 24.5307 12.3551C24.6168 12.3909 24.7091 12.4093 24.8024 12.4093H26.8021C26.8204 12.4084 26.8387 12.4126 26.8548 12.4214C26.871 12.4302 26.8844 12.4433 26.8935 12.4592L32.6601 25.2746L33.9779 24.8277L30.9939 18.208L28.0098 11.5882C27.8615 11.2016 27.5435 11.0083 27.0557 11.0083H24.8024C24.7092 11.0071 24.6167 11.0249 24.5305 11.0606C24.4444 11.0963 24.3664 11.1493 24.3014 11.2162C24.236 11.2788 24.1839 11.3539 24.1482 11.4371C24.1125 11.5204 24.0939 11.6099 24.0936 11.7005V11.6984ZM31.1572 19.5999V18.3028L22.722 19.5292V20.8242L31.1572 19.5999ZM24.6406 25.7506V24.4515H17.781V25.7506H24.6406ZM25.4721 26.6964C25.7009 26.6978 25.9277 26.6539 26.1395 26.5673C26.3513 26.4807 26.5438 26.353 26.7061 26.1917C26.8684 26.0304 26.9972 25.8386 27.085 25.6274C27.1729 25.4161 27.2181 25.1895 27.2181 24.9607C27.2224 24.7294 27.1796 24.4995 27.0924 24.2851C27.0052 24.0708 26.8755 23.8763 26.711 23.7135C26.3813 23.3871 25.936 23.2039 25.4721 23.2039C25.0081 23.2039 24.5629 23.3871 24.2332 23.7135C24.0677 23.8761 23.9366 24.0703 23.8477 24.2845C23.7587 24.4988 23.7138 24.7288 23.7156 24.9607C23.7065 25.1881 23.7461 25.4148 23.8318 25.6256C23.9175 25.8364 24.0473 26.0264 24.2124 26.183C24.3755 26.3487 24.5705 26.4798 24.7855 26.5684C25.0005 26.657 25.2312 26.7012 25.4638 26.6985L25.4721 26.6964ZM25.4721 25.4679C25.404 25.4687 25.3365 25.4557 25.2736 25.4296C25.2107 25.4035 25.1538 25.3649 25.1062 25.3162C25.0589 25.272 25.021 25.2186 24.9949 25.1592C24.9688 25.0999 24.9551 25.0359 24.9545 24.9711C24.9537 24.9021 24.9667 24.8337 24.9928 24.7698C25.0188 24.7059 25.0574 24.6478 25.1062 24.599C25.153 24.5491 25.2097 24.5094 25.2727 24.4825C25.3357 24.4557 25.4036 24.4423 25.4721 24.4431C25.5393 24.4417 25.6061 24.4545 25.6681 24.4806C25.73 24.5068 25.7858 24.5457 25.8317 24.5949C25.88 24.6446 25.918 24.7035 25.9434 24.7681C25.9687 24.8327 25.9809 24.9018 25.9793 24.9711C25.9798 25.0363 25.9669 25.1009 25.9416 25.161C25.9162 25.221 25.8788 25.2753 25.8317 25.3203C25.7842 25.3696 25.7269 25.4083 25.6635 25.4341C25.6002 25.4598 25.5321 25.4721 25.4638 25.47L25.4721 25.4679ZM18.1323 26.0562C18.3166 26.0546 18.4977 26.0079 18.6597 25.9201C18.8217 25.8323 18.9597 25.7061 19.0616 25.5525C19.1635 25.399 19.2261 25.2228 19.2441 25.0394C19.262 24.856 19.2347 24.671 19.1646 24.5006C19.0944 24.3302 18.9835 24.1796 18.8416 24.062C18.6997 23.9445 18.5311 23.8635 18.3507 23.8262C18.1702 23.789 17.9833 23.7965 17.8065 23.8483C17.6296 23.9 17.4681 23.9944 17.3362 24.123C17.1235 24.3374 17.0046 24.6275 17.0057 24.9296C17 25.0773 17.0255 25.2246 17.0807 25.3618C17.1359 25.499 17.2194 25.623 17.3258 25.7257C17.4293 25.8324 17.5535 25.9169 17.6907 25.9741C17.8279 26.0312 17.9754 26.0599 18.124 26.0583L18.1323 26.0562ZM32.9012 26.0562C33.0489 26.059 33.1955 26.031 33.3319 25.9741C33.4682 25.9172 33.5912 25.8326 33.6932 25.7257C33.8991 25.5106 34.0141 25.2242 34.0141 24.9264C34.0141 24.6286 33.8991 24.3423 33.6932 24.1272C33.5895 24.0212 33.4652 23.9377 33.3278 23.8819C33.1905 23.8261 33.0431 23.7992 32.895 23.8029C32.7465 23.7994 32.5989 23.8259 32.461 23.8809C32.3231 23.9359 32.1978 24.0183 32.0926 24.123C31.9858 24.2284 31.9013 24.354 31.8438 24.4925C31.7863 24.631 31.7571 24.7796 31.7579 24.9296C31.7523 25.0779 31.7786 25.2256 31.8349 25.363C31.8911 25.5003 31.9762 25.624 32.0843 25.7257C32.1895 25.8331 32.3154 25.9179 32.4544 25.9751C32.5934 26.0323 32.7426 26.0606 32.8929 26.0583L32.9012 26.0562ZM25.0667 23.6803L26.2329 24.3413L31.2466 19.0532H29.5837L25.0667 23.6803ZM17.1886 24.5117L18.3464 25.1707L23.0359 20.3233L21.8989 19.5625L17.1886 24.5117ZM24.3143 24.5325L25.4721 23.6886L20.0506 14.1013L18.7016 14.3861L24.3143 24.5325ZM17.1488 13.8997C17.1494 14.0881 17.2244 14.2686 17.3576 14.4018C17.4908 14.535 17.6713 14.6101 17.8597 14.6106H21.0962C21.1892 14.6124 21.2816 14.5949 21.3674 14.5591C21.4533 14.5233 21.5308 14.4701 21.595 14.4027C21.6618 14.3377 21.7147 14.2597 21.7504 14.1736C21.7862 14.0875 21.804 13.995 21.8029 13.9018C21.8002 13.7168 21.7256 13.5402 21.5948 13.4094C21.464 13.2786 21.2873 13.204 21.1024 13.2013H17.8659C17.7731 13.2008 17.6811 13.219 17.5954 13.2547C17.5098 13.2904 17.4321 13.3429 17.367 13.4091C17.298 13.47 17.2423 13.5444 17.2033 13.6277C17.1643 13.711 17.1429 13.8015 17.1405 13.8935L17.1488 13.8997Z" stroke="white" stroke-width="0.2" mask="url(#path-6-outside-2_93_1296)"/>
</svg>
