<svg width="50" height="50" viewBox="0 0 50 50" fill="none" xmlns="http://www.w3.org/2000/svg">
<rect x="5.5" y="3.5" width="38.7674" height="38.7674" rx="7.5" fill="#128450" stroke="#353535" stroke-width="5"/>
<rect x="9.5" y="7.5" width="30.7674" height="30.7674" rx="3.5" fill="#7AB979" stroke="#9EFF00" stroke-width="3"/>
<rect x="9.5" y="7.5" width="30.7674" height="30.7674" rx="3.5" fill="#1CDA19" stroke="#9EFF00" stroke-width="3"/>
<path d="M24.8839 50L28.8717 43.093H20.8962L24.8839 50Z" fill="#353535"/>
<path d="M16.608 21.98H19.038L20.532 31.268L22.044 21.98H24.474L21.684 34.4H19.398L16.608 21.98ZM26.2419 21.98H29.6799C30.7239 21.98 31.5579 22.28 32.1819 22.88C32.8179 23.48 33.1359 24.368 33.1359 25.544V30.836C33.1359 32 32.8059 32.888 32.1459 33.5C31.4859 34.1 30.6279 34.4 29.5719 34.4H26.2419V21.98ZM29.6259 32.42C30.0459 32.42 30.3639 32.258 30.5799 31.934C30.8079 31.61 30.9219 31.16 30.9219 30.584V25.922C30.9219 25.286 30.8139 24.806 30.5979 24.482C30.3819 24.146 30.0579 23.978 29.6259 23.978H28.4379V32.42H29.6259Z" fill="white"/>
<path d="M15.8567 16.9118C15.8919 16.9519 15.9373 16.984 15.9891 17.0055C16.0409 17.0269 16.0976 17.037 16.1546 17.035C16.2136 17.0327 16.2714 17.0197 16.3245 16.9968C16.3777 16.9738 16.4251 16.9415 16.4639 16.9017C17.4826 15.9142 18.7235 15.1309 20.1049 14.6033C22.9238 13.5608 26.0896 13.5608 28.9085 14.6033C30.2919 15.1395 31.5369 15.9254 32.5653 16.9118C32.6033 16.947 32.6489 16.9748 32.6994 16.9936C32.7499 17.0123 32.8041 17.0216 32.8588 17.0209C32.9151 17.0207 32.9707 17.009 33.0212 16.9866C33.0717 16.9642 33.1157 16.9317 33.15 16.8916L34.3847 15.7969C34.4541 15.7351 34.4952 15.6522 34.4999 15.5647C34.5025 15.4802 34.4695 15.398 34.4073 15.3344C33.6804 14.5421 32.8153 13.8601 31.8452 13.3147C30.7777 12.7095 29.6225 12.2378 28.4119 11.913C25.8592 11.229 23.1384 11.229 20.5857 11.913C19.3748 12.2371 18.2195 12.7087 17.1524 13.3147C16.1814 13.859 15.3161 14.5412 14.5903 15.3344C14.5334 15.4005 14.5018 15.4813 14.5 15.5647C14.5016 15.6088 14.5133 15.6521 14.5343 15.692C14.5552 15.7319 14.585 15.7676 14.6219 15.7969L15.8567 16.9118ZM19.439 20.1433C19.4765 20.1849 19.5245 20.2177 19.5791 20.2392C19.6337 20.2606 19.6933 20.27 19.7528 20.2665C19.8754 20.253 19.9876 20.1981 20.0665 20.113C20.6118 19.5751 21.2739 19.1422 22.0123 18.8406C22.7871 18.5089 23.6365 18.3403 24.4954 18.3478C25.3683 18.3362 26.2321 18.5085 27.0168 18.8507C27.7582 19.1649 28.4262 19.6021 28.9852 20.1393C29.0208 20.1778 29.0652 20.2091 29.1155 20.2311C29.1657 20.253 29.2205 20.2651 29.2764 20.2665C29.3348 20.264 29.3919 20.2504 29.444 20.2268C29.4962 20.2031 29.5421 20.1699 29.5789 20.1292L30.9581 18.9174C31.0275 18.858 31.0687 18.777 31.0732 18.6912C31.077 18.6061 31.0475 18.5225 30.9897 18.4549C30.5177 17.9495 29.9602 17.5133 29.3374 17.1623C27.8941 16.3464 26.2218 15.9133 24.5146 15.9133C22.8074 15.9133 21.1351 16.3464 19.6918 17.1623C19.069 17.5133 18.5115 17.9495 18.0395 18.4549C18.0065 18.4867 17.9811 18.5242 17.9649 18.5651C17.9487 18.6059 17.942 18.6494 17.9452 18.6926C17.9483 18.7359 17.9613 18.7782 17.9834 18.8168C18.0054 18.8555 18.036 18.8897 18.0733 18.9174L19.439 20.1433Z" fill="white"/>
</svg>
