<svg width="50" height="50" viewBox="0 0 50 50" fill="none" xmlns="http://www.w3.org/2000/svg">
<rect x="5.5" y="3.5" width="38.7674" height="38.7674" rx="7.5" fill="#128450" stroke="#353535" stroke-width="5"/>
<rect x="9.5" y="7.5" width="30.7674" height="30.7674" rx="3.5" fill="#23C11F" stroke="#40F574" stroke-width="3"/>
<rect x="9.5" y="7.5" width="30.7674" height="30.7674" rx="3.5" fill="#149B11" stroke="#40F574" stroke-width="3"/>
<path d="M24.8839 50L28.8717 43.093H20.8962L24.8839 50Z" fill="#353535"/>
<path d="M13.501 23.1736C13.484 23.9519 13.6852 24.7194 14.082 25.3891C14.4788 26.0588 15.0552 26.604 15.746 26.9629C16.4799 27.3463 17.298 27.54 18.1259 27.5262H30.8714C31.6993 27.54 32.5174 27.3463 33.2513 26.9629C33.943 26.6049 34.5203 26.0599 34.9176 25.3901C35.315 24.7202 35.5164 23.9523 35.499 23.1736C35.4997 22.8258 35.4562 22.4792 35.3694 22.1424C35.2858 21.8259 35.1825 21.5151 35.06 21.2116L32.0772 13.8921C31.804 13.1621 31.3034 12.5391 30.6493 12.1152C29.9524 11.6917 29.148 11.4787 28.3329 11.5017H20.6644C18.8134 11.5017 17.5609 12.295 16.9069 13.8816L13.9373 21.201C13.8148 21.5065 13.7105 21.8191 13.6253 22.1371C13.5392 22.4758 13.4974 22.8242 13.501 23.1736ZM16.973 18.9428L18.7024 14.3708C19.0214 13.5369 19.7142 13.12 20.7808 13.12H28.2324C29.3078 13.12 30.0006 13.5369 30.3108 14.3708L32.0402 18.9428C31.8555 18.8988 31.6683 18.8661 31.4796 18.8449C31.2802 18.8234 31.0799 18.8129 30.8793 18.8132H18.1338C17.9333 18.8129 17.7329 18.8235 17.5336 18.8449C17.3449 18.8652 17.1577 18.897 16.973 18.9401V18.9428ZM15.3335 23.1736C15.3223 22.8311 15.3858 22.4902 15.5196 22.1747C15.6534 21.8591 15.8543 21.5765 16.1083 21.3464C16.6693 20.8626 17.3937 20.611 18.1338 20.643H30.8793C31.6195 20.611 32.3439 20.8626 32.9049 21.3464C33.1595 21.5761 33.3607 21.8586 33.4946 22.1743C33.6284 22.4899 33.6916 22.831 33.6797 23.1736C33.7015 23.519 33.6477 23.8649 33.5221 24.1873C33.3965 24.5098 33.2021 24.8009 32.9525 25.0405C32.4659 25.4742 31.7731 25.6937 30.8793 25.6937H18.1338C17.3944 25.7271 16.67 25.4775 16.1083 24.9956C15.8537 24.7671 15.6523 24.4855 15.5185 24.1707C15.3846 23.8559 15.3215 23.5155 15.3335 23.1736ZM29.6127 23.1736C29.6101 23.3374 29.6414 23.4999 29.7047 23.651C29.768 23.8021 29.8618 23.9385 29.9803 24.0515C30.0957 24.1688 30.2337 24.2614 30.386 24.3237C30.5383 24.386 30.7016 24.4166 30.8661 24.4138C31.194 24.4094 31.5068 24.2754 31.7361 24.041C31.9099 23.8684 32.0285 23.6481 32.077 23.408C32.1254 23.1679 32.1016 22.9189 32.0084 22.6924C31.9153 22.4659 31.757 22.2721 31.5536 22.1356C31.3503 21.9991 31.111 21.926 30.8661 21.9255C30.7025 21.9242 30.5404 21.9561 30.3895 22.0192C30.2386 22.0824 30.102 22.1756 29.9882 22.2931C29.8697 22.4064 29.7762 22.5433 29.7138 22.695C29.6514 22.8466 29.6215 23.0097 29.6259 23.1736H29.6127ZM23.351 32.1986H25.202V26.3521H23.351V32.1986ZM15.7196 33.1559H32.8414C32.9635 33.1597 33.085 33.1382 33.1984 33.0927C33.3117 33.0472 33.4143 32.9786 33.4999 32.8914C33.5872 32.8049 33.6565 32.7019 33.7038 32.5885C33.7511 32.475 33.7754 32.3533 33.7754 32.2304C33.7754 32.1074 33.7511 31.9857 33.7038 31.8723C33.6565 31.7588 33.5872 31.6558 33.4999 31.5693C33.4139 31.4827 33.3111 31.4146 33.1979 31.3692C33.0847 31.3237 32.9634 31.3018 32.8414 31.3049H15.7196C15.5354 31.304 15.3551 31.358 15.2017 31.4599C15.0483 31.5618 14.9286 31.7071 14.858 31.8772C14.7874 32.0474 14.7691 32.2347 14.8052 32.4153C14.8414 32.5959 14.9305 32.7616 15.0611 32.8914C15.1485 32.9799 15.2533 33.0492 15.369 33.0947C15.4847 33.1402 15.6086 33.1611 15.7328 33.1559H15.7196ZM24.2818 34.6922C24.7157 34.6961 25.1422 34.5799 25.5141 34.3564C25.8829 34.1369 26.191 33.8288 26.4105 33.46C26.6305 33.0861 26.7464 32.6602 26.7464 32.2264C26.7464 31.7926 26.6305 31.3667 26.4105 30.9928C26.1926 30.6228 25.8841 30.3143 25.5141 30.0964C25.1402 29.8765 24.7143 29.7605 24.2805 29.7605C23.8467 29.7605 23.4208 29.8765 23.0469 30.0964C22.6775 30.3151 22.3693 30.6235 22.1505 30.9928C21.9306 31.3667 21.8146 31.7926 21.8146 32.2264C21.8146 32.6602 21.9306 33.0861 22.1505 33.46C22.3707 33.8283 22.6786 34.1362 23.0469 34.3564C23.4204 34.5807 23.8488 34.697 24.2845 34.6922H24.2818Z" fill="white"/>
</svg>
