<svg width="40" height="40" viewBox="0 0 40 40" fill="none" xmlns="http://www.w3.org/2000/svg">
<path d="M7.73915 33.087H30.2609C32.0869 33.087 33.7355 32.6703 35.2065 31.8369C36.6775 31.0036 37.8442 29.8841 38.7065 28.4783C39.5688 27.0725 40 25.5073 40 23.7826C40 22.029 39.5507 20.4601 38.6521 19.0761C37.7536 17.692 36.5326 16.5978 34.9891 15.7935C33.4456 14.9891 31.7101 14.5942 29.7826 14.6087C28.6667 12.3043 27.1522 10.4602 25.2391 9.0761C23.3261 7.69203 20.9927 7 18.2391 7C16.1087 7 14.1558 7.53261 12.3805 8.59784C10.6051 9.66304 9.15579 11.0978 8.03259 12.9022C6.90943 14.7065 6.25364 16.7174 6.06522 18.9348C4.38405 19.3696 2.95289 20.2101 1.77172 21.4565C0.590575 22.7029 0 24.2536 0 26.1087C0 27.3841 0.304348 28.5507 0.913043 29.6087C1.52174 30.6667 2.40217 31.5109 3.55433 32.1413C4.70652 32.7717 6.10146 33.087 7.73915 33.087Z" fill="#676767"/>
</svg>
