<svg width="41" height="40" viewBox="0 0 41 40" fill="none" xmlns="http://www.w3.org/2000/svg">
<path d="M20.3345 10.4742C18.6482 10.4575 16.9901 10.9069 15.543 11.7727C14.119 12.6209 12.9297 13.8118 12.0835 15.237C11.2305 16.6897 10.7808 18.3438 10.7808 20.0285C10.7808 21.7131 11.2305 23.3673 12.0835 24.82C12.9297 26.2452 14.119 27.4361 15.543 28.2843C16.9897 29.1344 18.6373 29.5826 20.3154 29.5826C21.9934 29.5826 23.641 29.1344 25.0877 28.2843C26.5131 27.4362 27.704 26.2454 28.552 24.82C29.405 23.3673 29.8547 21.7131 29.8547 20.0285C29.8547 18.3438 29.405 16.6897 28.552 15.237C27.704 13.8116 26.5131 12.6207 25.0877 11.7727C23.6528 10.9112 22.0081 10.4619 20.3345 10.4742V10.4742ZM29.1988 8.55755C29.0313 8.72406 28.8995 8.92292 28.8113 9.14205C28.7232 9.36118 28.6806 9.59596 28.6862 9.83209C28.682 10.0716 28.7251 10.3096 28.8131 10.5325C28.9011 10.7553 29.0322 10.9585 29.1988 11.1306C29.5466 11.4685 30.0125 11.6576 30.4974 11.6577C30.7387 11.6659 30.979 11.6232 31.2027 11.5324C31.4264 11.4416 31.6285 11.3047 31.7959 11.1306L34.4647 8.46172C34.6332 8.28898 34.7654 8.08423 34.8535 7.85956C34.9415 7.63489 34.9837 7.39487 34.9775 7.15364C34.9844 6.91519 34.9425 6.67783 34.8543 6.45617C34.7662 6.23451 34.6336 6.03323 34.4647 5.86471C34.2927 5.69804 34.0894 5.56695 33.8666 5.47897C33.6438 5.39099 33.4058 5.34785 33.1662 5.35202C32.9301 5.34618 32.6952 5.38865 32.4761 5.47681C32.2569 5.56497 32.058 5.69697 31.8917 5.86471L29.1988 8.55755ZM31.7719 28.888C31.6062 28.7194 31.4075 28.5867 31.1882 28.4985C30.9689 28.4103 30.7337 28.3683 30.4974 28.3753C30.2574 28.3673 30.0182 28.4087 29.7949 28.4969C29.5715 28.5851 29.3686 28.7182 29.1988 28.888C29.029 29.0578 28.8959 29.2607 28.8077 29.484C28.7195 29.7074 28.6782 29.9465 28.6862 30.1865C28.6803 30.4227 28.7228 30.6576 28.8109 30.8767C28.8991 31.0959 29.0311 31.2947 29.1988 31.4611L31.8917 34.1539C32.0578 34.3213 32.2569 34.4525 32.4762 34.5391C32.6956 34.6257 32.9306 34.6658 33.1662 34.657C33.651 34.6559 34.1164 34.467 34.4647 34.13C34.6329 33.964 34.7653 33.7652 34.8535 33.5459C34.9417 33.3267 34.9839 33.0917 34.9775 32.8554C34.9827 32.6158 34.94 32.3774 34.852 32.1545C34.764 31.9315 34.6323 31.7284 34.4647 31.5569L31.7719 28.888ZM22.1601 34.4079C22.1597 34.17 22.1116 33.9346 22.0186 33.7157C21.9256 33.4968 21.7896 33.2987 21.6187 33.1333C21.4519 32.9604 21.2521 32.8229 21.0311 32.729C20.81 32.6351 20.5723 32.5867 20.3321 32.5867C20.0919 32.5867 19.8542 32.6351 19.6332 32.729C19.4122 32.8229 19.2123 32.9604 19.0456 33.1333C18.8753 33.299 18.7401 33.4972 18.6479 33.7161C18.5557 33.9351 18.5085 34.1703 18.509 34.4079V38.1788C18.5085 38.4164 18.5557 38.6516 18.6479 38.8706C18.7401 39.0895 18.8753 39.2877 19.0456 39.4533C19.2123 39.6262 19.4122 39.7637 19.6332 39.8577C19.8542 39.9516 20.0919 40 20.3321 40C20.5723 40 20.81 39.9516 21.0311 39.8577C21.2521 39.7637 21.4519 39.6262 21.6187 39.4533C21.7896 39.2879 21.9256 39.0899 22.0186 38.871C22.1116 38.652 22.1597 38.4167 22.1601 38.1788V34.4079ZM22.1601 1.82546C22.1605 1.58747 22.1128 1.35183 22.0197 1.13278C21.9267 0.913739 21.7903 0.715803 21.6187 0.550892C21.4527 0.376793 21.253 0.238201 21.0319 0.143506C20.8107 0.0488115 20.5727 0 20.3321 0C20.0915 0 19.8535 0.0488115 19.6324 0.143506C19.4112 0.238201 19.2116 0.376793 19.0456 0.550892C18.8747 0.716041 18.7389 0.914128 18.6467 1.13319C18.5545 1.35226 18.5076 1.58777 18.509 1.82546V5.59159C18.5176 6.07307 18.7126 6.53243 19.0532 6.87294C19.3937 7.21346 19.853 7.40856 20.3345 7.41717C20.575 7.41881 20.8132 7.37071 21.0342 7.27588C21.2552 7.18106 21.4542 7.04154 21.6187 6.86613C21.7898 6.70088 21.9259 6.50288 22.019 6.28392C22.112 6.06495 22.16 5.8295 22.1601 5.59159V1.82546ZM38.4513 21.8253C38.689 21.8266 38.9245 21.7798 39.1436 21.6875C39.3626 21.5953 39.5607 21.4596 39.7258 21.2887C39.8999 21.1227 40.0385 20.923 40.1332 20.7019C40.2279 20.4807 40.2767 20.2427 40.2767 20.0021C40.2767 19.7616 40.2279 19.5235 40.1332 19.3024C40.0385 19.0812 39.8999 18.8816 39.7258 18.7156C39.5607 18.5447 39.3626 18.409 39.1436 18.3167C38.9245 18.2245 38.689 18.1776 38.4513 18.179H34.7091C34.2417 18.2029 33.8014 18.4055 33.4791 18.7447C33.1568 19.084 32.977 19.5341 32.977 20.0021C32.977 20.4701 33.1568 20.9202 33.4791 21.2595C33.8014 21.5988 34.2417 21.8013 34.7091 21.8253H38.4513ZM2.23208 18.179C1.7647 18.2029 1.32441 18.4055 1.00208 18.7447C0.67975 19.084 0.5 19.5341 0.5 20.0021C0.5 20.4701 0.67975 20.9202 1.00208 21.2595C1.32441 21.5988 1.7647 21.8013 2.23208 21.8253H5.95511C6.42248 21.8013 6.86283 21.5988 7.18516 21.2595C7.50749 20.9202 7.68718 20.4701 7.68718 20.0021C7.68718 19.5341 7.50749 19.084 7.18516 18.7447C6.86283 18.4055 6.42248 18.2029 5.95511 18.179H2.23208ZM8.87793 11.1354C9.13268 11.3864 9.4559 11.5566 9.80699 11.6246C10.1581 11.6927 10.5214 11.6556 10.8515 11.5179C11.1816 11.3802 11.4637 11.1482 11.6624 10.8508C11.8611 10.5535 11.9676 10.2041 11.9685 9.84648C11.9748 9.60841 11.9321 9.37159 11.843 9.15071C11.754 8.92982 11.6206 8.72956 11.451 8.56235L8.78692 5.86951C8.62326 5.70086 8.42625 5.56815 8.20845 5.47988C7.99065 5.3916 7.75684 5.34971 7.52195 5.35681C7.28364 5.35097 7.04659 5.39338 6.82509 5.48149C6.60359 5.56959 6.40224 5.70158 6.23305 5.86951C5.89565 6.21273 5.70658 6.67475 5.70658 7.15604C5.70658 7.63732 5.89565 8.09935 6.23305 8.44256L8.87793 11.1354ZM6.21387 31.5378C6.03956 31.7056 5.90155 31.9075 5.80841 32.1308C5.71528 32.3542 5.66901 32.5943 5.67242 32.8362C5.66664 33.0728 5.70962 33.3081 5.79865 33.5273C5.88767 33.7466 6.02081 33.9452 6.18989 34.1108C6.35764 34.2803 6.55781 34.4143 6.77842 34.5049C6.99903 34.5954 7.23559 34.6406 7.47404 34.6379C7.7102 34.6501 7.94638 34.6139 8.16803 34.5315C8.38969 34.4491 8.5921 34.3222 8.76294 34.1587L11.4271 31.4898C11.6024 31.3278 11.7413 31.1304 11.8346 30.9107C11.928 30.691 11.9736 30.454 11.9685 30.2153C11.9728 29.9753 11.9293 29.7369 11.8405 29.5139C11.7516 29.291 11.6192 29.088 11.451 28.9168C11.1038 28.5872 10.6433 28.4034 10.1645 28.4034C9.68571 28.4034 9.22517 28.5872 8.87793 28.9168L6.21387 31.5378Z" fill="#FFCC00"/>
</svg>
