<?xml version="1.0" encoding="utf-8"?>
<!-- Generator: Adobe Illustrator 26.0.2, SVG Export Plug-In . SVG Version: 6.00 Build 0)  -->
<svg version="1.1" id="圖層_1" xmlns="http://www.w3.org/2000/svg" xmlns:xlink="http://www.w3.org/1999/xlink" x="0px" y="0px"
	 viewBox="0 0 50 50" style="enable-background:new 0 0 50 50;" xml:space="preserve">
<style type="text/css">
	.st0{fill:#128450;stroke:#353535;stroke-width:5;}
	.st1{fill:#FF6B00;stroke:#FFE071;stroke-width:3;}
	.st2{fill:#7D19BA;stroke:#E7A3FF;stroke-width:3;}
	.st3{display:none;fill:#353535;}
	.st4{clip-path:url(#SVGID_00000132071398716950022590000013796947803560773270_);}
	.st5{fill:#FFFFFF;}
	.st6{fill:none;stroke:#FFFFFF;stroke-width:1.5;}
</style>
<path class="st0" d="M13,5.5h23.8c4.1,0,7.5,3.4,7.5,7.5v23.8c0,4.1-3.4,7.5-7.5,7.5H13c-4.1,0-7.5-3.4-7.5-7.5V13
	C5.5,8.9,8.9,5.5,13,5.5z"/>
<path class="st1" d="M13,9.5h23.8c1.9,0,3.5,1.6,3.5,3.5v23.8c0,1.9-1.6,3.5-3.5,3.5H13c-1.9,0-3.5-1.6-3.5-3.5V13
	C9.5,11.1,11.1,9.5,13,9.5z"/>
<path class="st2" d="M13,9.5h23.8c1.9,0,3.5,1.6,3.5,3.5v23.8c0,1.9-1.6,3.5-3.5,3.5H13c-1.9,0-3.5-1.6-3.5-3.5V13
	C9.5,11.1,11.1,9.5,13,9.5z"/>
<path class="st3" d="M24.9,52l4-6.9h-8L24.9,52z"/>
<g>
	<defs>
		<rect id="SVGID_1_" x="12.5" y="12.4" width="25" height="25"/>
	</defs>
	<clipPath id="SVGID_00000129170117904696069240000004237470767948160657_">
		<use xlink:href="#SVGID_1_"  style="overflow:visible;"/>
	</clipPath>
	<g style="clip-path:url(#SVGID_00000129170117904696069240000004237470767948160657_);">
		<path class="st5" d="M14.6,31.6c0,0.6,0.2,1.2,0.6,1.6V36c0,0.2,0,0.4,0.1,0.5c0.1,0.2,0.2,0.3,0.3,0.5c0.1,0.1,0.3,0.2,0.5,0.3
			c0.2,0.1,0.4,0.1,0.6,0.1h1.3c0.2,0,0.4,0,0.6-0.1c0.2-0.1,0.3-0.2,0.5-0.3c0.1-0.1,0.2-0.3,0.3-0.5c0.1-0.2,0.1-0.4,0.1-0.5v-1.7
			c0.9,0.1,1.8,0.1,2.8,0.1c1,0,2,0,3,0c1.1,0,2.1,0,3,0c1,0,1.9-0.1,2.8-0.1V36c0,0.2,0,0.4,0.1,0.5c0.1,0.2,0.2,0.3,0.3,0.5
			c0.1,0.1,0.3,0.2,0.5,0.3c0.2,0.1,0.4,0.1,0.6,0.1h1.3c0.2,0,0.4,0,0.5-0.1c0.2-0.1,0.3-0.2,0.5-0.3c0.1-0.1,0.2-0.3,0.3-0.5
			C35,36.4,35,36.2,35,36v-2.8c0.4-0.4,0.6-1,0.6-1.6V15.2c0-0.3,0-0.6-0.1-0.9c-0.1-0.3-0.3-0.5-0.5-0.8c-0.5-0.4-1.1-0.7-1.7-0.7
			c-1.1-0.1-2.4-0.2-3.8-0.3c-1.4-0.1-2.9-0.1-4.4-0.1c-1.5,0-2.9,0-4.4,0.1c-1.4,0.1-2.7,0.2-3.9,0.3c-0.6,0-1.3,0.3-1.7,0.7
			c-0.2,0.2-0.4,0.5-0.5,0.8c-0.1,0.3-0.1,0.6-0.1,0.9L14.6,31.6z M25,32.9c-1.6,0-3,0-4.3-0.1c-1.3-0.1-2.4-0.2-3.4-0.3
			c-0.2,0-0.3,0-0.5-0.1c-0.2-0.1-0.3-0.2-0.4-0.3c-0.2-0.3-0.3-0.6-0.3-1V15.7c0-0.3,0.1-0.7,0.3-0.9c0.2-0.3,0.5-0.4,0.9-0.4
			c0.9-0.1,2.1-0.2,3.4-0.3c1.4-0.1,2.8-0.1,4.3-0.1c1.5,0,2.9,0,4.3,0.1c1.4,0.1,2.5,0.2,3.4,0.3c0.2,0,0.3,0,0.5,0.1
			c0.2,0.1,0.3,0.2,0.4,0.3c0.2,0.3,0.3,0.6,0.3,1v15.4c0,0.3-0.1,0.7-0.3,1c-0.1,0.1-0.3,0.2-0.4,0.3c-0.2,0.1-0.3,0.1-0.5,0.1
			c-1,0.1-2.1,0.2-3.4,0.3C28.1,32.9,26.6,32.9,25,32.9L25,32.9z M15.3,22.8v-6.4h-1.2c-0.3,0-0.6,0.1-0.8,0.3
			c-0.1,0.1-0.2,0.2-0.2,0.3C13,17.1,13,17.2,13,17.4v4.4c0,0.1,0,0.3,0.1,0.4c0.1,0.1,0.1,0.2,0.2,0.3c0.2,0.2,0.5,0.3,0.8,0.3
			L15.3,22.8z M34.7,22.8H36c0.3,0,0.6-0.1,0.8-0.3c0.1-0.1,0.2-0.2,0.2-0.3c0.1-0.1,0.1-0.3,0.1-0.4v-4.4c0-0.1,0-0.3-0.1-0.4
			c-0.1-0.1-0.1-0.2-0.2-0.3c-0.2-0.2-0.5-0.3-0.8-0.3h-1.2V22.8z M19,31.3c0.2,0,0.4,0,0.5-0.1c0.2-0.1,0.3-0.2,0.4-0.3
			c0.1-0.1,0.2-0.3,0.3-0.4c0.1-0.2,0.1-0.3,0.1-0.5c0-0.2,0-0.4-0.1-0.5c-0.1-0.2-0.2-0.3-0.3-0.4c-0.1-0.1-0.3-0.2-0.4-0.3
			c-0.2-0.1-0.3-0.1-0.5-0.1c-0.2,0-0.4,0-0.5,0.1c-0.2,0.1-0.3,0.2-0.4,0.3c-0.1,0.1-0.2,0.3-0.3,0.4c-0.1,0.2-0.1,0.3-0.1,0.5
			c0,0.2,0,0.4,0.1,0.5c0.1,0.2,0.2,0.3,0.3,0.4c0.1,0.1,0.3,0.2,0.4,0.3C18.6,31.3,18.8,31.3,19,31.3z M22.5,30.9h5
			c0.1,0,0.3,0,0.4-0.1c0.1,0,0.2-0.1,0.3-0.2s0.2-0.2,0.2-0.3s0.1-0.3,0.1-0.4c0-0.1,0-0.3-0.1-0.4c0-0.1-0.1-0.2-0.2-0.3
			c-0.1-0.1-0.2-0.2-0.3-0.2c-0.1,0-0.2-0.1-0.4-0.1h-5c-0.1,0-0.3,0-0.4,0.1c-0.1,0-0.2,0.1-0.3,0.2c-0.1,0.1-0.2,0.2-0.2,0.3
			s-0.1,0.2-0.1,0.4c0,0.1,0,0.3,0.1,0.4c0,0.1,0.1,0.2,0.2,0.3c0.1,0.1,0.2,0.2,0.3,0.2C22.3,30.9,22.4,30.9,22.5,30.9L22.5,30.9z
			 M31.1,31.3c0.2,0,0.4,0,0.5-0.1c0.2-0.1,0.3-0.2,0.4-0.3c0.1-0.1,0.2-0.3,0.3-0.4c0.1-0.2,0.1-0.3,0.1-0.5c0-0.2,0-0.4-0.1-0.5
			c-0.1-0.2-0.2-0.3-0.3-0.4c-0.1-0.1-0.3-0.2-0.4-0.3c-0.2-0.1-0.3-0.1-0.5-0.1c-0.2,0-0.4,0-0.5,0.1c-0.2,0.1-0.3,0.2-0.4,0.3
			c-0.1,0.1-0.2,0.3-0.3,0.4c-0.1,0.2-0.1,0.3-0.1,0.5c0,0.2,0,0.4,0.1,0.5c0.1,0.2,0.2,0.3,0.3,0.4c0.1,0.1,0.3,0.2,0.4,0.3
			C30.7,31.3,30.9,31.3,31.1,31.3L31.1,31.3z"/>
		<path class="st6" d="M18.3,26.2L18.3,26.2L18.3,26.2c-0.2,0-0.3-0.1-0.3-0.1c0,0-0.1-0.1-0.1-0.4h0v0v-8.9c0-0.3,0.1-0.4,0.1-0.5
			c0,0,0.1-0.1,0.4-0.1c1-0.1,2.1-0.2,3.2-0.2c1.1,0,2.3-0.1,3.4-0.1c1.2,0,2.3,0,3.4,0.1c1.1,0,2.2,0.1,3.2,0.2
			c0.3,0,0.3,0.1,0.4,0.2c0,0.1,0.1,0.2,0.1,0.5v8.9v0c0,0.2-0.1,0.3-0.1,0.4c0,0-0.1,0.1-0.3,0.1c-1,0.2-2.1,0.3-3.2,0.4
			c-1.1,0.1-2.3,0.1-3.5,0.1c-1.2,0-2.3,0-3.5-0.1C20.4,26.5,19.3,26.4,18.3,26.2z"/>
	</g>
</g>
</svg>
