<?xml version="1.0" encoding="utf-8"?>
<!-- Generator: Adobe Illustrator 26.0.2, SVG Export Plug-In . SVG Version: 6.00 Build 0)  -->
<svg version="1.1" id="圖層_1" xmlns="http://www.w3.org/2000/svg" xmlns:xlink="http://www.w3.org/1999/xlink" x="0px" y="0px"
	 viewBox="0 0 50 50" style="enable-background:new 0 0 50 50;" xml:space="preserve">
<style type="text/css">
	.st0{fill:#128450;stroke:#353535;stroke-width:5;}
	.st1{fill:#459BFF;stroke:#23EAF7;stroke-width:3;}
	.st2{fill:#45BCFF;stroke:#23EAF7;stroke-width:3;}
	.st3{display:none;fill:#353535;}
	.st4{fill:none;stroke:#FFFFFF;stroke-width:2;}
	.st5{fill:#FFFFFF;}
</style>
<path class="st0" d="M13,5.5h23.8c4.1,0,7.5,3.4,7.5,7.5v23.8c0,4.1-3.4,7.5-7.5,7.5H13c-4.1,0-7.5-3.4-7.5-7.5V13
	C5.5,8.9,8.9,5.5,13,5.5z"/>
<path class="st1" d="M13,9.5h23.8c1.9,0,3.5,1.6,3.5,3.5v23.8c0,1.9-1.6,3.5-3.5,3.5H13c-1.9,0-3.5-1.6-3.5-3.5V13
	C9.5,11.1,11.1,9.5,13,9.5z"/>
<path class="st2" d="M13,9.5h23.8c1.9,0,3.5,1.6,3.5,3.5v23.8c0,1.9-1.6,3.5-3.5,3.5H13c-1.9,0-3.5-1.6-3.5-3.5V13
	C9.5,11.1,11.1,9.5,13,9.5z"/>
<path class="st3" d="M24.9,52l4-6.9h-8L24.9,52z"/>
<circle class="st4" cx="25" cy="25" r="10"/>
<path class="st5" d="M26.2,19.3c1.2,0,2,0.3,2.5,0.9c0.5,0.6,0.7,1.5,0.7,2.8c0,1.2-0.3,2.2-0.8,2.8c-0.5,0.6-1.3,0.9-2.4,0.9h-1.1
	V31H23V19.3H26.2z M26.1,24.8c0.4,0,0.7-0.1,0.9-0.4c0.2-0.3,0.3-0.8,0.3-1.4s-0.1-1.1-0.3-1.4c-0.2-0.3-0.5-0.4-0.9-0.4h-1v3.6
	H26.1z"/>
</svg>
