<?xml version="1.0" encoding="utf-8"?>
<!-- Generator: Adobe Illustrator 26.0.2, SVG Export Plug-In . SVG Version: 6.00 Build 0)  -->
<svg version="1.1" id="圖層_1" xmlns="http://www.w3.org/2000/svg" xmlns:xlink="http://www.w3.org/1999/xlink" x="0px" y="0px"
	 viewBox="0 0 50 50" style="enable-background:new 0 0 50 50;" xml:space="preserve">
<style type="text/css">
	.st0{fill:#FFD913;stroke:#353535;stroke-width:5;}
	.st1{fill:#FFA800;fill-opacity:0.94;stroke:#FAFF13;stroke-width:3;}
	.st2{display:none;fill:#353535;}
	.st3{fill:#FFFFFF;}
	.st4{fill-rule:evenodd;clip-rule:evenodd;fill:#FFFFFF;}
</style>
<path class="st0" d="M13,5.5h23.8c4.1,0,7.5,3.4,7.5,7.5v23.8c0,4.1-3.4,7.5-7.5,7.5H13c-4.1,0-7.5-3.4-7.5-7.5V13
	C5.5,8.9,8.9,5.5,13,5.5z"/>
<path class="st1" d="M13,9.5h23.8c1.9,0,3.5,1.6,3.5,3.5v23.8c0,1.9-1.6,3.5-3.5,3.5H13c-1.9,0-3.5-1.6-3.5-3.5V13
	C9.5,11.1,11.1,9.5,13,9.5z"/>
<path class="st2" d="M24.9,52l4-6.9h-8L24.9,52z"/>
<path class="st3" d="M16.2,27.1c-1,0-1.8-0.3-2.5-0.9c-0.6-0.6-0.9-1.6-0.9-2.8v-5.2c0-1.3,0.3-2.2,0.9-2.8c0.6-0.6,1.4-1,2.5-1
	c1,0,1.8,0.3,2.4,0.9c0.6,0.6,0.9,1.5,0.9,2.7v0.2h-1.3v-0.1c0-0.9-0.2-1.5-0.6-1.9c-0.4-0.4-0.8-0.6-1.5-0.6
	c-0.7,0-1.2,0.2-1.6,0.7c-0.3,0.4-0.5,1.1-0.5,2.1v5.1c0,1.7,0.7,2.6,2.1,2.6c0.6,0,1.1-0.2,1.5-0.6s0.5-1,0.5-1.8v-0.2h1.3v0.2
	c0,1.2-0.3,2.1-0.9,2.7C18,26.9,17.2,27.1,16.2,27.1z M29.7,14.6V27h-1.3v-9.5l-2.6,6.7h-0.9l-2.6-6.6V27h-1.3V14.6h1.3l3,7.7l3-7.7
	H29.7z M34.2,27.1c-1.1,0-1.9-0.3-2.4-0.9c-0.5-0.6-0.8-1.5-0.8-2.6h1.3c0,0.8,0.2,1.4,0.6,1.8c0.3,0.4,0.8,0.5,1.5,0.5
	c0.6,0,1.1-0.2,1.4-0.5c0.3-0.4,0.5-0.9,0.5-1.7c0-0.7-0.1-1.2-0.4-1.5c-0.3-0.3-0.8-0.7-1.5-1L33.5,21c-0.8-0.3-1.4-0.7-1.8-1.2
	s-0.6-1.2-0.6-2c0-1,0.3-1.8,0.8-2.4c0.6-0.6,1.4-0.9,2.4-0.9c0.9,0,1.7,0.3,2.2,0.8c0.6,0.6,0.9,1.4,0.9,2.5h-1.2
	c-0.1-1.5-0.7-2.2-1.9-2.2c-0.6,0-1.1,0.2-1.4,0.5s-0.5,0.9-0.5,1.5c0,0.6,0.1,1,0.4,1.4c0.3,0.3,0.8,0.6,1.5,0.9l0.7,0.3
	c0.8,0.3,1.5,0.8,1.9,1.3c0.4,0.5,0.6,1.3,0.6,2.2c0,1.1-0.3,1.9-0.8,2.5C36,26.8,35.2,27.1,34.2,27.1z"/>
<path class="st3" d="M16.7,27.1c-1,0-1.8-0.3-2.5-0.9c-0.6-0.6-0.9-1.6-0.9-2.8v-5.2c0-1.3,0.3-2.2,0.9-2.8c0.6-0.6,1.4-1,2.5-1
	c1,0,1.8,0.3,2.4,0.9c0.6,0.6,0.9,1.5,0.9,2.7v0.2h-1.3v-0.1c0-0.9-0.2-1.5-0.6-1.9c-0.4-0.4-0.8-0.6-1.5-0.6
	c-0.7,0-1.2,0.2-1.6,0.7c-0.3,0.4-0.5,1.1-0.5,2.1v5.1c0,1.7,0.7,2.6,2.1,2.6c0.6,0,1.1-0.2,1.5-0.6s0.5-1,0.5-1.8v-0.2H20v0.2
	c0,1.2-0.3,2.1-0.9,2.7C18.5,26.9,17.7,27.1,16.7,27.1z M30.2,14.6V27h-1.3v-9.5l-2.6,6.7h-0.9l-2.6-6.6V27h-1.3V14.6h1.3l3,7.7
	l3-7.7H30.2z M34.7,27.1c-1.1,0-1.9-0.3-2.4-0.9c-0.5-0.6-0.8-1.5-0.8-2.6h1.3c0,0.8,0.2,1.4,0.6,1.8c0.3,0.4,0.8,0.5,1.5,0.5
	c0.6,0,1.1-0.2,1.4-0.5c0.3-0.4,0.5-0.9,0.5-1.7c0-0.7-0.1-1.2-0.4-1.5c-0.3-0.3-0.8-0.7-1.5-1L34,21c-0.8-0.3-1.4-0.7-1.8-1.2
	c-0.4-0.5-0.6-1.2-0.6-2c0-1,0.3-1.8,0.8-2.4c0.6-0.6,1.4-0.9,2.4-0.9c0.9,0,1.7,0.3,2.2,0.8c0.6,0.6,0.9,1.4,0.9,2.5h-1.2
	c-0.1-1.5-0.7-2.2-1.9-2.2c-0.6,0-1.1,0.2-1.4,0.5s-0.5,0.9-0.5,1.5c0,0.6,0.1,1,0.4,1.4c0.3,0.3,0.8,0.6,1.5,0.9l0.7,0.3
	c0.8,0.3,1.5,0.8,1.9,1.3c0.4,0.5,0.6,1.3,0.6,2.2c0,1.1-0.3,1.9-0.8,2.5C36.5,26.8,35.7,27.1,34.7,27.1z"/>
<path class="st4" d="M25.9,27h-1.5v4.4c-0.2,0.1-0.3,0.1-0.5,0.2c-0.4,0.2-0.7,0.5-0.9,0.9c-0.1,0.1-0.1,0.2-0.2,0.3h-6.3
	c-0.2,0-0.4,0.1-0.5,0.2c-0.2,0.1-0.3,0.2-0.3,0.4c-0.1,0.2-0.1,0.4-0.1,0.5c0,0.2,0.1,0.3,0.3,0.5c0.1,0.1,0.2,0.2,0.3,0.2
	c0.1,0,0.2,0.1,0.4,0.1h6.3c0,0.1,0.1,0.2,0.2,0.3c0.2,0.4,0.5,0.7,0.9,0.9c0.4,0.2,0.8,0.3,1.2,0.3c0.4,0,0.9-0.1,1.2-0.3
	c0.4-0.2,0.7-0.5,0.9-0.9c0.1-0.1,0.1-0.2,0.2-0.3h6.3c0.1,0,0.2,0,0.4-0.1c0.1,0,0.2-0.1,0.3-0.2c0.1-0.1,0.2-0.2,0.2-0.3
	c0-0.1,0.1-0.2,0.1-0.4c0-0.1,0-0.2-0.1-0.4c0-0.1-0.1-0.2-0.2-0.3c-0.1-0.1-0.2-0.2-0.3-0.2c-0.1,0-0.2-0.1-0.4-0.1h-6.3
	c0-0.1-0.1-0.2-0.2-0.3c-0.2-0.4-0.5-0.7-0.9-0.9c-0.2-0.1-0.3-0.2-0.5-0.2V27z"/>
</svg>
