<?xml version="1.0" encoding="utf-8"?>
<!-- Generator: Adobe Illustrator 26.0.2, SVG Export Plug-In . SVG Version: 6.00 Build 0)  -->
<svg version="1.1" id="圖層_1" xmlns="http://www.w3.org/2000/svg" xmlns:xlink="http://www.w3.org/1999/xlink" x="0px" y="0px"
	 viewBox="0 0 50 50" style="enable-background:new 0 0 50 50;" xml:space="preserve">
<style type="text/css">
	.st0{fill:#128450;stroke:#353535;stroke-width:5;}
	.st1{fill:#FF6B00;stroke:#FFE071;stroke-width:3;}
	.st2{display:none;fill:#353535;}
	.st3{clip-path:url(#SVGID_00000021826684308202275860000002575419057503476406_);}
	.st4{fill:#FFFFFF;stroke:#FFFFFF;stroke-width:0.9583;}
	.st5{fill:none;stroke:#FFFFFF;stroke-width:2;}
	.st6{fill:#FFFFFF;}
</style>
<path class="st0" d="M13,5.5h23.8c4.1,0,7.5,3.4,7.5,7.5v23.8c0,4.1-3.4,7.5-7.5,7.5H13c-4.1,0-7.5-3.4-7.5-7.5V13
	C5.5,8.9,8.9,5.5,13,5.5z"/>
<path class="st1" d="M13,9.5h23.8c1.9,0,3.5,1.6,3.5,3.5v23.8c0,1.9-1.6,3.5-3.5,3.5H13c-1.9,0-3.5-1.6-3.5-3.5V13
	C9.5,11.1,11.1,9.5,13,9.5z"/>
<path class="st2" d="M24.9,52l4-6.9h-8L24.9,52z"/>
<g>
	<defs>
		<rect id="SVGID_1_" x="12.5" y="12.4" width="25" height="25"/>
	</defs>
	<clipPath id="SVGID_00000150787158387218042120000016633330890401241224_">
		<use xlink:href="#SVGID_1_"  style="overflow:visible;"/>
	</clipPath>
	<g style="clip-path:url(#SVGID_00000150787158387218042120000016633330890401241224_);">
		<path class="st4" d="M14.5,26.4L14.5,26.4c0.3,0,0.5,0.2,0.5,0.5v9.6c0,0.3-0.2,0.5-0.5,0.5l0,0c-0.3,0-0.5-0.2-0.5-0.5v-9.6
			C14,26.6,14.2,26.4,14.5,26.4z"/>
		<path class="st5" d="M16.5,15.4h17c1.1,0,2,0.9,2,2v8.4c0,1.1-0.9,2-2,2h-17c-1.1,0-2-0.9-2-2v-8.4C14.5,16.3,15.4,15.4,16.5,15.4
			z"/>
		<path class="st6" d="M18.9,19.2L18.9,19.2c1.4,0,2.5,1.1,2.5,2.5l0,0c0,1.4-1.1,2.5-2.5,2.5l0,0c-1.4,0-2.5-1.1-2.5-2.5l0,0
			C16.4,20.3,17.5,19.2,18.9,19.2z"/>
		<path class="st6" d="M25.4,19.2L25.4,19.2c1.4,0,2.5,1.1,2.5,2.5l0,0c0,1.4-1.1,2.5-2.5,2.5l0,0c-1.4,0-2.5-1.1-2.5-2.5l0,0
			C22.9,20.3,24,19.2,25.4,19.2z"/>
		<path class="st6" d="M31.9,19.2L31.9,19.2c1.4,0,2.5,1.1,2.5,2.5l0,0c0,1.4-1.1,2.5-2.5,2.5l0,0c-1.4,0-2.5-1.1-2.5-2.5l0,0
			C29.4,20.3,30.5,19.2,31.9,19.2z"/>
		<path class="st6" d="M20,27.4h10c0.8,0,1.5,0.7,1.5,1.5l0,0c0,0.8-0.7,1.5-1.5,1.5H20c-0.8,0-1.5-0.7-1.5-1.5l0,0
			C18.5,28.1,19.2,27.4,20,27.4z"/>
		<path class="st6" d="M20,13.4h10c0.8,0,1.5,0.7,1.5,1.5l0,0c0,0.8-0.7,1.5-1.5,1.5H20c-0.8,0-1.5-0.7-1.5-1.5l0,0
			C18.5,14.1,19.2,13.4,20,13.4z"/>
	</g>
</g>
</svg>
