<?xml version="1.0" encoding="utf-8"?>
<!-- Generator: Adobe Illustrator 26.0.2, SVG Export Plug-In . SVG Version: 6.00 Build 0)  -->
<svg version="1.1" id="圖層_1" xmlns="http://www.w3.org/2000/svg" xmlns:xlink="http://www.w3.org/1999/xlink" x="0px" y="0px"
	 viewBox="0 0 50 50" style="enable-background:new 0 0 50 50;" xml:space="preserve">
<style type="text/css">
	.st0{fill:#128450;stroke:#353535;stroke-width:5;}
	.st1{fill:#74B173;stroke:#47CC6D;stroke-width:3;}
	.st2{fill:#0DE899;stroke:#00FFF0;stroke-width:3;}
	.st3{fill:#02D388;stroke:#00FFF0;stroke-width:3;}
	.st4{fill:#00A86B;stroke:#00FFF0;stroke-width:3;}
	.st5{display:none;fill:#353535;}
	.st6{clip-path:url(#SVGID_00000065754233742642988340000002141938049468672185_);}
	.st7{fill:#FFFFFF;}
</style>
<path class="st0" d="M13,5.5h23.8c4.1,0,7.5,3.4,7.5,7.5v23.8c0,4.1-3.4,7.5-7.5,7.5H13c-4.1,0-7.5-3.4-7.5-7.5V13
	C5.5,8.9,8.9,5.5,13,5.5z"/>
<path class="st1" d="M13,9.5h23.8c1.9,0,3.5,1.6,3.5,3.5v23.8c0,1.9-1.6,3.5-3.5,3.5H13c-1.9,0-3.5-1.6-3.5-3.5V13
	C9.5,11.1,11.1,9.5,13,9.5z"/>
<path class="st2" d="M13,9.5h23.8c1.9,0,3.5,1.6,3.5,3.5v23.8c0,1.9-1.6,3.5-3.5,3.5H13c-1.9,0-3.5-1.6-3.5-3.5V13
	C9.5,11.1,11.1,9.5,13,9.5z"/>
<path class="st3" d="M13,9.5h23.8c1.9,0,3.5,1.6,3.5,3.5v23.8c0,1.9-1.6,3.5-3.5,3.5H13c-1.9,0-3.5-1.6-3.5-3.5V13
	C9.5,11.1,11.1,9.5,13,9.5z"/>
<path class="st4" d="M13,9.5h23.8c1.9,0,3.5,1.6,3.5,3.5v23.8c0,1.9-1.6,3.5-3.5,3.5H13c-1.9,0-3.5-1.6-3.5-3.5V13
	C9.5,11.1,11.1,9.5,13,9.5z"/>
<path class="st5" d="M24.9,50l4-6.9h-8L24.9,50z"/>
<g>
	<defs>
		<rect id="SVGID_1_" x="12.5" y="12.5" width="25" height="25"/>
	</defs>
	<clipPath id="SVGID_00000038396181359753123950000005022191090802024095_">
		<use xlink:href="#SVGID_1_"  style="overflow:visible;"/>
	</clipPath>
	<g style="clip-path:url(#SVGID_00000038396181359753123950000005022191090802024095_);">
		<path class="st7" d="M31.1,15.5h-2.5v9.9l2.5-2.5V15.5z"/>
		<path class="st7" d="M16.1,15.5h-2.5v20h2.5V15.5z"/>
		<path class="st7" d="M23.6,15.5h-2.5v5h2.5V15.5z"/>
		<path class="st7" d="M23.6,23h-2.5v5h2.5V23z"/>
		<path class="st7" d="M23.6,30.5h-2.5v5h2.5V30.5z"/>
		<path class="st7" d="M36.8,26.2l-1.4-1.4c-0.7-0.7-1.9-0.7-2.7,0l-6.6,6.6v4.1h4.1l6.6-6.6C37.6,28.1,37.6,27,36.8,26.2z
			 M29.3,33.6h-1.3v-1.3l4.3-4.3l1.3,1.3L29.3,33.6z"/>
	</g>
</g>
</svg>
