<?xml version="1.0" encoding="utf-8"?>
<!-- Generator: Adobe Illustrator 26.0.2, SVG Export Plug-In . SVG Version: 6.00 Build 0)  -->
<svg version="1.1" id="圖層_1" xmlns="http://www.w3.org/2000/svg" xmlns:xlink="http://www.w3.org/1999/xlink" x="0px" y="0px"
	 viewBox="0 0 50 50" style="enable-background:new 0 0 50 50;" xml:space="preserve">
<style type="text/css">
	.st0{fill:#128450;stroke:#353535;stroke-width:5;}
	.st1{fill:#137EE0;stroke:#13CBF3;stroke-width:3;}
	.st2{display:none;fill:#353535;}
	.st3{fill-rule:evenodd;clip-rule:evenodd;fill:#FFFFFF;}
	.st4{fill-rule:evenodd;clip-rule:evenodd;fill:#FFFFFF;filter:url(#Adobe_OpacityMaskFilter);}
	.st5{mask:url(#path-4-inside-1_93_1296_00000101078116956693633590000008382436034436459419_);fill:#FFFFFF;}
	.st6{fill:#FFFFFF;}
	.st7{fill:#FFFFFF;filter:url(#Adobe_OpacityMaskFilter_00000154397040546502224510000000302049396313232779_);}
	
		.st8{mask:url(#path-6-outside-2_93_1296_00000178905573044622536040000006518350977785345934_);fill:none;stroke:#FFFFFF;stroke-width:0.2;}
</style>
<path class="st0" d="M13,5.5h23.8c4.1,0,7.5,3.4,7.5,7.5v23.8c0,4.1-3.4,7.5-7.5,7.5H13c-4.1,0-7.5-3.4-7.5-7.5V13
	C5.5,8.9,8.9,5.5,13,5.5z"/>
<path class="st1" d="M13,9.5h23.8c1.9,0,3.5,1.6,3.5,3.5v23.8c0,1.9-1.6,3.5-3.5,3.5H13c-1.9,0-3.5-1.6-3.5-3.5V13
	C9.5,11.1,11.1,9.5,13,9.5z"/>
<path class="st2" d="M24.9,50l4-6.9h-8L24.9,50z"/>
<path class="st3" d="M24,34h-7l-1,2h7L24,34z M34,34h-7l-1,2h7L34,34z"/>
<defs>
	<filter id="Adobe_OpacityMaskFilter" filterUnits="userSpaceOnUse" x="14.4" y="33" width="21.2" height="4">
		<feColorMatrix  type="matrix" values="1 0 0 0 0  0 1 0 0 0  0 0 1 0 0  0 0 0 1 0"/>
	</filter>
</defs>
<mask maskUnits="userSpaceOnUse" x="14.4" y="33" width="21.2" height="4" id="path-4-inside-1_93_1296_00000101078116956693633590000008382436034436459419_">
	<path class="st4" d="M24,34h-7l-1,2h7L24,34z M34,34h-7l-1,2h7L34,34z"/>
</mask>
<path class="st5" d="M17,34v-1h-0.6l-0.3,0.6L17,34z M24,34l0.9,0.4l0.7-1.4H24V34z M16,36l-0.9-0.4L14.4,37H16V36z M23,36v1h0.6
	l0.3-0.6L23,36z M27,34v-1h-0.6l-0.3,0.6L27,34z M34,34l0.9,0.4l0.7-1.4H34V34z M26,36l-0.9-0.4L24.4,37H26V36z M33,36v1h0.6
	l0.3-0.6L33,36z M17,35h7v-2h-7V35z M16.9,36.4l1-2l-1.8-0.9l-1,2L16.9,36.4z M23,35h-7v2h7V35z M23.1,33.6l-1,2l1.8,0.9l1-2
	L23.1,33.6z M27,35h7v-2h-7V35z M26.9,36.4l1-2l-1.8-0.9l-1,2L26.9,36.4z M33,35h-7v2h7V35z M33.1,33.6l-1,2l1.8,0.9l1-2L33.1,33.6z
	"/>
<path class="st6" d="M18.1,32c0.7,0,1.4-0.1,2-0.4c0.6-0.3,1.2-0.6,1.6-1.1c0.5-0.5,0.8-1,1.1-1.6c0.5-1.3,0.5-2.7,0-4
	c-0.5-1.2-1.5-2.2-2.7-2.7c-1.3-0.5-2.7-0.5-4,0c-0.6,0.3-1.2,0.6-1.6,1.1c-0.5,0.5-0.8,1-1.1,1.6c-0.5,1.3-0.5,2.7,0,4
	c0.3,0.6,0.6,1.2,1.1,1.6c0.5,0.5,1,0.8,1.6,1.1C16.8,31.9,17.4,32.1,18.1,32z M18.1,30.6c-0.7,0-1.3-0.2-1.9-0.5
	c-0.6-0.3-1-0.8-1.3-1.3c-0.3-0.6-0.5-1.2-0.5-1.9c0-0.7,0.2-1.3,0.5-1.9c0.3-0.6,0.8-1,1.3-1.3c0.6-0.3,1.2-0.5,1.9-0.5
	c0.7,0,1.3,0.2,1.9,0.5c0.6,0.3,1,0.8,1.3,1.3c0.3,0.6,0.5,1.2,0.5,1.9c0,0.7-0.2,1.3-0.5,1.9c-0.3,0.6-0.8,1-1.3,1.3
	C19.4,30.5,18.8,30.6,18.1,30.6z M32.9,32c0.7,0,1.4-0.1,2-0.4c0.6-0.3,1.2-0.6,1.6-1.1c0.5-0.5,0.8-1,1.1-1.6c0.5-1.3,0.5-2.7,0-4
	c-0.5-1.2-1.5-2.2-2.7-2.7c-1.3-0.5-2.7-0.5-4,0c-0.6,0.3-1.2,0.6-1.6,1.1c-0.7,0.7-1.2,1.6-1.4,2.6c-0.2,1-0.1,2,0.3,3
	c0.5,1.2,1.5,2.2,2.7,2.7C31.5,31.9,32.2,32.1,32.9,32z M32.9,30.6c-0.7,0-1.3-0.2-1.9-0.5c-0.6-0.3-1-0.8-1.3-1.3
	c-0.3-0.6-0.5-1.2-0.5-1.9c0-0.7,0.2-1.3,0.5-1.9c0.3-0.6,0.8-1,1.3-1.3c0.6-0.3,1.2-0.5,1.9-0.5c0.7,0,1.3,0.2,1.9,0.5
	c0.6,0.3,1,0.8,1.3,1.3c0.3,0.6,0.5,1.2,0.5,1.9c0,0.7-0.2,1.3-0.5,1.9c-0.3,0.6-0.8,1-1.3,1.3C34.2,30.5,33.5,30.6,32.9,30.6z
	 M24.1,13.7c0,0.1,0,0.2,0.1,0.3c0,0.1,0.1,0.2,0.2,0.2c0.1,0.1,0.1,0.1,0.2,0.2c0.1,0,0.2,0.1,0.3,0.1h2c0,0,0,0,0.1,0c0,0,0,0,0,0
	l5.8,12.8l1.3-0.4l-3-6.6l-3-6.6c-0.1-0.4-0.5-0.6-1-0.6h-2.3c-0.1,0-0.2,0-0.3,0.1c-0.1,0-0.2,0.1-0.2,0.2
	c-0.1,0.1-0.1,0.1-0.2,0.2C24.1,13.5,24.1,13.6,24.1,13.7L24.1,13.7z M31.2,21.6v-1.3l-8.4,1.2v1.3L31.2,21.6z M24.6,27.8v-1.3h-6.9
	v1.3H24.6z M25.5,28.7c0.2,0,0.5,0,0.7-0.1c0.2-0.1,0.4-0.2,0.6-0.4s0.3-0.4,0.4-0.6c0.1-0.2,0.1-0.4,0.1-0.7c0-0.2,0-0.5-0.1-0.7
	c-0.1-0.2-0.2-0.4-0.4-0.6c-0.3-0.3-0.8-0.5-1.2-0.5c-0.5,0-0.9,0.2-1.2,0.5c-0.2,0.2-0.3,0.4-0.4,0.6c-0.1,0.2-0.1,0.4-0.1,0.7
	c0,0.2,0,0.5,0.1,0.7c0.1,0.2,0.2,0.4,0.4,0.6c0.2,0.2,0.4,0.3,0.6,0.4S25.2,28.7,25.5,28.7L25.5,28.7z M25.5,27.5
	c-0.1,0-0.1,0-0.2,0s-0.1-0.1-0.2-0.1c0,0-0.1-0.1-0.1-0.2c0-0.1,0-0.1,0-0.2c0-0.1,0-0.1,0-0.2c0-0.1,0.1-0.1,0.1-0.2
	c0,0,0.1-0.1,0.2-0.1c0.1,0,0.1,0,0.2,0c0.1,0,0.1,0,0.2,0c0.1,0,0.1,0.1,0.2,0.1c0,0,0.1,0.1,0.1,0.2c0,0.1,0,0.1,0,0.2
	c0,0.1,0,0.1,0,0.2c0,0.1-0.1,0.1-0.1,0.2c0,0-0.1,0.1-0.2,0.1C25.6,27.5,25.5,27.5,25.5,27.5L25.5,27.5z M18.1,28.1
	c0.2,0,0.4,0,0.5-0.1c0.2-0.1,0.3-0.2,0.4-0.4c0.1-0.2,0.2-0.3,0.2-0.5c0-0.2,0-0.4-0.1-0.5c-0.1-0.2-0.2-0.3-0.3-0.4
	c-0.1-0.1-0.3-0.2-0.5-0.2c-0.2,0-0.4,0-0.5,0c-0.2,0.1-0.3,0.1-0.5,0.3c-0.2,0.2-0.3,0.5-0.3,0.8c0,0.1,0,0.3,0.1,0.4
	c0.1,0.1,0.1,0.3,0.2,0.4c0.1,0.1,0.2,0.2,0.4,0.2C17.8,28,18,28.1,18.1,28.1L18.1,28.1z M32.9,28.1c0.1,0,0.3,0,0.4-0.1
	c0.1-0.1,0.3-0.1,0.4-0.2c0.2-0.2,0.3-0.5,0.3-0.8s-0.1-0.6-0.3-0.8c-0.1-0.1-0.2-0.2-0.4-0.2c-0.1-0.1-0.3-0.1-0.4-0.1
	c-0.1,0-0.3,0-0.4,0.1c-0.1,0.1-0.3,0.1-0.4,0.2c-0.1,0.1-0.2,0.2-0.2,0.4c-0.1,0.1-0.1,0.3-0.1,0.4c0,0.1,0,0.3,0.1,0.4
	c0.1,0.1,0.1,0.3,0.2,0.4c0.1,0.1,0.2,0.2,0.4,0.2C32.6,28,32.7,28.1,32.9,28.1L32.9,28.1z M25.1,25.7l1.2,0.7l5-5.3h-1.7L25.1,25.7
	z M17.2,26.5l1.2,0.7l4.7-4.8l-1.1-0.8L17.2,26.5z M24.3,26.5l1.2-0.8l-5.4-9.6l-1.3,0.3L24.3,26.5z M17.1,15.9
	c0,0.2,0.1,0.4,0.2,0.5c0.1,0.1,0.3,0.2,0.5,0.2h3.2c0.1,0,0.2,0,0.3-0.1c0.1,0,0.2-0.1,0.2-0.2c0.1-0.1,0.1-0.1,0.2-0.2
	c0-0.1,0.1-0.2,0.1-0.3c0-0.2-0.1-0.4-0.2-0.5c-0.1-0.1-0.3-0.2-0.5-0.2h-3.2c-0.1,0-0.2,0-0.3,0.1c-0.1,0-0.2,0.1-0.2,0.2
	c-0.1,0.1-0.1,0.1-0.2,0.2C17.2,15.7,17.1,15.8,17.1,15.9L17.1,15.9z"/>
<defs>
	
		<filter id="Adobe_OpacityMaskFilter_00000095335936276779576510000011711616241845824931_" filterUnits="userSpaceOnUse" x="12.9" y="12.9" width="25.2" height="19.2">
		<feColorMatrix  type="matrix" values="1 0 0 0 0  0 1 0 0 0  0 0 1 0 0  0 0 0 1 0"/>
	</filter>
</defs>
<mask maskUnits="userSpaceOnUse" x="12.9" y="12.9" width="25.2" height="19.2" id="path-6-outside-2_93_1296_00000178905573044622536040000006518350977785345934_">
	
		<rect x="12" y="12" style="fill:#FFFFFF;filter:url(#Adobe_OpacityMaskFilter_00000095335936276779576510000011711616241845824931_);" width="27" height="21"/>
	<path d="M18.1,32c0.7,0,1.4-0.1,2-0.4c0.6-0.3,1.2-0.6,1.6-1.1c0.5-0.5,0.8-1,1.1-1.6c0.5-1.3,0.5-2.7,0-4
		c-0.5-1.2-1.5-2.2-2.7-2.7c-1.3-0.5-2.7-0.5-4,0c-0.6,0.3-1.2,0.6-1.6,1.1c-0.5,0.5-0.8,1-1.1,1.6c-0.5,1.3-0.5,2.7,0,4
		c0.3,0.6,0.6,1.2,1.1,1.6c0.5,0.5,1,0.8,1.6,1.1C16.8,31.9,17.4,32.1,18.1,32z M18.1,30.6c-0.7,0-1.3-0.2-1.9-0.5
		c-0.6-0.3-1-0.8-1.3-1.3c-0.3-0.6-0.5-1.2-0.5-1.9c0-0.7,0.2-1.3,0.5-1.9c0.3-0.6,0.8-1,1.3-1.3c0.6-0.3,1.2-0.5,1.9-0.5
		c0.7,0,1.3,0.2,1.9,0.5c0.6,0.3,1,0.8,1.3,1.3c0.3,0.6,0.5,1.2,0.5,1.9c0,0.7-0.2,1.3-0.5,1.9c-0.3,0.6-0.8,1-1.3,1.3
		C19.4,30.5,18.8,30.6,18.1,30.6z M32.9,32c0.7,0,1.4-0.1,2-0.4c0.6-0.3,1.2-0.6,1.6-1.1c0.5-0.5,0.8-1,1.1-1.6c0.5-1.3,0.5-2.7,0-4
		c-0.5-1.2-1.5-2.2-2.7-2.7c-1.3-0.5-2.7-0.5-4,0c-0.6,0.3-1.2,0.6-1.6,1.1c-0.7,0.7-1.2,1.6-1.4,2.6c-0.2,1-0.1,2,0.3,3
		c0.5,1.2,1.5,2.2,2.7,2.7C31.5,31.9,32.2,32.1,32.9,32z M32.9,30.6c-0.7,0-1.3-0.2-1.9-0.5c-0.6-0.3-1-0.8-1.3-1.3
		c-0.3-0.6-0.5-1.2-0.5-1.9c0-0.7,0.2-1.3,0.5-1.9c0.3-0.6,0.8-1,1.3-1.3c0.6-0.3,1.2-0.5,1.9-0.5c0.7,0,1.3,0.2,1.9,0.5
		c0.6,0.3,1,0.8,1.3,1.3c0.3,0.6,0.5,1.2,0.5,1.9c0,0.7-0.2,1.3-0.5,1.9c-0.3,0.6-0.8,1-1.3,1.3C34.2,30.5,33.5,30.6,32.9,30.6z
		 M24.1,13.7c0,0.1,0,0.2,0.1,0.3c0,0.1,0.1,0.2,0.2,0.2c0.1,0.1,0.1,0.1,0.2,0.2c0.1,0,0.2,0.1,0.3,0.1h2c0,0,0,0,0.1,0
		c0,0,0,0,0,0l5.8,12.8l1.3-0.4l-3-6.6l-3-6.6c-0.1-0.4-0.5-0.6-1-0.6h-2.3c-0.1,0-0.2,0-0.3,0.1c-0.1,0-0.2,0.1-0.2,0.2
		c-0.1,0.1-0.1,0.1-0.2,0.2C24.1,13.5,24.1,13.6,24.1,13.7L24.1,13.7z M31.2,21.6v-1.3l-8.4,1.2v1.3L31.2,21.6z M24.6,27.8v-1.3
		h-6.9v1.3H24.6z M25.5,28.7c0.2,0,0.5,0,0.7-0.1c0.2-0.1,0.4-0.2,0.6-0.4s0.3-0.4,0.4-0.6c0.1-0.2,0.1-0.4,0.1-0.7
		c0-0.2,0-0.5-0.1-0.7c-0.1-0.2-0.2-0.4-0.4-0.6c-0.3-0.3-0.8-0.5-1.2-0.5c-0.5,0-0.9,0.2-1.2,0.5c-0.2,0.2-0.3,0.4-0.4,0.6
		c-0.1,0.2-0.1,0.4-0.1,0.7c0,0.2,0,0.5,0.1,0.7c0.1,0.2,0.2,0.4,0.4,0.6c0.2,0.2,0.4,0.3,0.6,0.4S25.2,28.7,25.5,28.7L25.5,28.7z
		 M25.5,27.5c-0.1,0-0.1,0-0.2,0s-0.1-0.1-0.2-0.1c0,0-0.1-0.1-0.1-0.2c0-0.1,0-0.1,0-0.2c0-0.1,0-0.1,0-0.2c0-0.1,0.1-0.1,0.1-0.2
		c0,0,0.1-0.1,0.2-0.1c0.1,0,0.1,0,0.2,0c0.1,0,0.1,0,0.2,0c0.1,0,0.1,0.1,0.2,0.1c0,0,0.1,0.1,0.1,0.2c0,0.1,0,0.1,0,0.2
		c0,0.1,0,0.1,0,0.2c0,0.1-0.1,0.1-0.1,0.2c0,0-0.1,0.1-0.2,0.1C25.6,27.5,25.5,27.5,25.5,27.5L25.5,27.5z M18.1,28.1
		c0.2,0,0.4,0,0.5-0.1c0.2-0.1,0.3-0.2,0.4-0.4c0.1-0.2,0.2-0.3,0.2-0.5c0-0.2,0-0.4-0.1-0.5c-0.1-0.2-0.2-0.3-0.3-0.4
		c-0.1-0.1-0.3-0.2-0.5-0.2c-0.2,0-0.4,0-0.5,0c-0.2,0.1-0.3,0.1-0.5,0.3c-0.2,0.2-0.3,0.5-0.3,0.8c0,0.1,0,0.3,0.1,0.4
		c0.1,0.1,0.1,0.3,0.2,0.4c0.1,0.1,0.2,0.2,0.4,0.2C17.8,28,18,28.1,18.1,28.1L18.1,28.1z M32.9,28.1c0.1,0,0.3,0,0.4-0.1
		c0.1-0.1,0.3-0.1,0.4-0.2c0.2-0.2,0.3-0.5,0.3-0.8s-0.1-0.6-0.3-0.8c-0.1-0.1-0.2-0.2-0.4-0.2c-0.1-0.1-0.3-0.1-0.4-0.1
		c-0.1,0-0.3,0-0.4,0.1c-0.1,0.1-0.3,0.1-0.4,0.2c-0.1,0.1-0.2,0.2-0.2,0.4c-0.1,0.1-0.1,0.3-0.1,0.4c0,0.1,0,0.3,0.1,0.4
		c0.1,0.1,0.1,0.3,0.2,0.4c0.1,0.1,0.2,0.2,0.4,0.2C32.6,28,32.7,28.1,32.9,28.1L32.9,28.1z M25.1,25.7l1.2,0.7l5-5.3h-1.7
		L25.1,25.7z M17.2,26.5l1.2,0.7l4.7-4.8l-1.1-0.8L17.2,26.5z M24.3,26.5l1.2-0.8l-5.4-9.6l-1.3,0.3L24.3,26.5z M17.1,15.9
		c0,0.2,0.1,0.4,0.2,0.5c0.1,0.1,0.3,0.2,0.5,0.2h3.2c0.1,0,0.2,0,0.3-0.1c0.1,0,0.2-0.1,0.2-0.2c0.1-0.1,0.1-0.1,0.2-0.2
		c0-0.1,0.1-0.2,0.1-0.3c0-0.2-0.1-0.4-0.2-0.5c-0.1-0.1-0.3-0.2-0.5-0.2h-3.2c-0.1,0-0.2,0-0.3,0.1c-0.1,0-0.2,0.1-0.2,0.2
		c-0.1,0.1-0.1,0.1-0.2,0.2C17.2,15.7,17.1,15.8,17.1,15.9L17.1,15.9z"/>
</mask>
<path class="st8" d="M18.1,32c0.7,0,1.4-0.1,2-0.4c0.6-0.3,1.2-0.6,1.6-1.1c0.5-0.5,0.8-1,1.1-1.6c0.5-1.3,0.5-2.7,0-4
	c-0.5-1.2-1.5-2.2-2.7-2.7c-1.3-0.5-2.7-0.5-4,0c-0.6,0.3-1.2,0.6-1.6,1.1c-0.5,0.5-0.8,1-1.1,1.6c-0.5,1.3-0.5,2.7,0,4
	c0.3,0.6,0.6,1.2,1.1,1.6c0.5,0.5,1,0.8,1.6,1.1C16.8,31.9,17.4,32.1,18.1,32z M18.1,30.6c-0.7,0-1.3-0.2-1.9-0.5
	c-0.6-0.3-1-0.8-1.3-1.3c-0.3-0.6-0.5-1.2-0.5-1.9c0-0.7,0.2-1.3,0.5-1.9c0.3-0.6,0.8-1,1.3-1.3c0.6-0.3,1.2-0.5,1.9-0.5
	c0.7,0,1.3,0.2,1.9,0.5c0.6,0.3,1,0.8,1.3,1.3c0.3,0.6,0.5,1.2,0.5,1.9c0,0.7-0.2,1.3-0.5,1.9c-0.3,0.6-0.8,1-1.3,1.3
	C19.4,30.5,18.8,30.6,18.1,30.6z M32.9,32c0.7,0,1.4-0.1,2-0.4c0.6-0.3,1.2-0.6,1.6-1.1c0.5-0.5,0.8-1,1.1-1.6c0.5-1.3,0.5-2.7,0-4
	c-0.5-1.2-1.5-2.2-2.7-2.7c-1.3-0.5-2.7-0.5-4,0c-0.6,0.3-1.2,0.6-1.6,1.1c-0.7,0.7-1.2,1.6-1.4,2.6c-0.2,1-0.1,2,0.3,3
	c0.5,1.2,1.5,2.2,2.7,2.7C31.5,31.9,32.2,32.1,32.9,32z M32.9,30.6c-0.7,0-1.3-0.2-1.9-0.5c-0.6-0.3-1-0.8-1.3-1.3
	c-0.3-0.6-0.5-1.2-0.5-1.9c0-0.7,0.2-1.3,0.5-1.9c0.3-0.6,0.8-1,1.3-1.3c0.6-0.3,1.2-0.5,1.9-0.5c0.7,0,1.3,0.2,1.9,0.5
	c0.6,0.3,1,0.8,1.3,1.3c0.3,0.6,0.5,1.2,0.5,1.9c0,0.7-0.2,1.3-0.5,1.9c-0.3,0.6-0.8,1-1.3,1.3C34.2,30.5,33.5,30.6,32.9,30.6z
	 M24.1,13.7c0,0.1,0,0.2,0.1,0.3c0,0.1,0.1,0.2,0.2,0.2c0.1,0.1,0.1,0.1,0.2,0.2c0.1,0,0.2,0.1,0.3,0.1h2c0,0,0,0,0.1,0c0,0,0,0,0,0
	l5.8,12.8l1.3-0.4l-3-6.6l-3-6.6c-0.1-0.4-0.5-0.6-1-0.6h-2.3c-0.1,0-0.2,0-0.3,0.1c-0.1,0-0.2,0.1-0.2,0.2
	c-0.1,0.1-0.1,0.1-0.2,0.2C24.1,13.5,24.1,13.6,24.1,13.7L24.1,13.7z M31.2,21.6v-1.3l-8.4,1.2v1.3L31.2,21.6z M24.6,27.8v-1.3h-6.9
	v1.3H24.6z M25.5,28.7c0.2,0,0.5,0,0.7-0.1c0.2-0.1,0.4-0.2,0.6-0.4s0.3-0.4,0.4-0.6c0.1-0.2,0.1-0.4,0.1-0.7c0-0.2,0-0.5-0.1-0.7
	c-0.1-0.2-0.2-0.4-0.4-0.6c-0.3-0.3-0.8-0.5-1.2-0.5c-0.5,0-0.9,0.2-1.2,0.5c-0.2,0.2-0.3,0.4-0.4,0.6c-0.1,0.2-0.1,0.4-0.1,0.7
	c0,0.2,0,0.5,0.1,0.7c0.1,0.2,0.2,0.4,0.4,0.6c0.2,0.2,0.4,0.3,0.6,0.4S25.2,28.7,25.5,28.7L25.5,28.7z M25.5,27.5
	c-0.1,0-0.1,0-0.2,0s-0.1-0.1-0.2-0.1c0,0-0.1-0.1-0.1-0.2c0-0.1,0-0.1,0-0.2c0-0.1,0-0.1,0-0.2c0-0.1,0.1-0.1,0.1-0.2
	c0,0,0.1-0.1,0.2-0.1c0.1,0,0.1,0,0.2,0c0.1,0,0.1,0,0.2,0c0.1,0,0.1,0.1,0.2,0.1c0,0,0.1,0.1,0.1,0.2c0,0.1,0,0.1,0,0.2
	c0,0.1,0,0.1,0,0.2c0,0.1-0.1,0.1-0.1,0.2c0,0-0.1,0.1-0.2,0.1C25.6,27.5,25.5,27.5,25.5,27.5L25.5,27.5z M18.1,28.1
	c0.2,0,0.4,0,0.5-0.1c0.2-0.1,0.3-0.2,0.4-0.4c0.1-0.2,0.2-0.3,0.2-0.5c0-0.2,0-0.4-0.1-0.5c-0.1-0.2-0.2-0.3-0.3-0.4
	c-0.1-0.1-0.3-0.2-0.5-0.2c-0.2,0-0.4,0-0.5,0c-0.2,0.1-0.3,0.1-0.5,0.3c-0.2,0.2-0.3,0.5-0.3,0.8c0,0.1,0,0.3,0.1,0.4
	c0.1,0.1,0.1,0.3,0.2,0.4c0.1,0.1,0.2,0.2,0.4,0.2C17.8,28,18,28.1,18.1,28.1L18.1,28.1z M32.9,28.1c0.1,0,0.3,0,0.4-0.1
	c0.1-0.1,0.3-0.1,0.4-0.2c0.2-0.2,0.3-0.5,0.3-0.8s-0.1-0.6-0.3-0.8c-0.1-0.1-0.2-0.2-0.4-0.2c-0.1-0.1-0.3-0.1-0.4-0.1
	c-0.1,0-0.3,0-0.4,0.1c-0.1,0.1-0.3,0.1-0.4,0.2c-0.1,0.1-0.2,0.2-0.2,0.4c-0.1,0.1-0.1,0.3-0.1,0.4c0,0.1,0,0.3,0.1,0.4
	c0.1,0.1,0.1,0.3,0.2,0.4c0.1,0.1,0.2,0.2,0.4,0.2C32.6,28,32.7,28.1,32.9,28.1L32.9,28.1z M25.1,25.7l1.2,0.7l5-5.3h-1.7L25.1,25.7
	z M17.2,26.5l1.2,0.7l4.7-4.8l-1.1-0.8L17.2,26.5z M24.3,26.5l1.2-0.8l-5.4-9.6l-1.3,0.3L24.3,26.5z M17.1,15.9
	c0,0.2,0.1,0.4,0.2,0.5c0.1,0.1,0.3,0.2,0.5,0.2h3.2c0.1,0,0.2,0,0.3-0.1c0.1,0,0.2-0.1,0.2-0.2c0.1-0.1,0.1-0.1,0.2-0.2
	c0-0.1,0.1-0.2,0.1-0.3c0-0.2-0.1-0.4-0.2-0.5c-0.1-0.1-0.3-0.2-0.5-0.2h-3.2c-0.1,0-0.2,0-0.3,0.1c-0.1,0-0.2,0.1-0.2,0.2
	c-0.1,0.1-0.1,0.1-0.2,0.2C17.2,15.7,17.1,15.8,17.1,15.9L17.1,15.9z"/>
</svg>
