<?xml version="1.0" encoding="utf-8"?>
<!-- Generator: Adobe Illustrator 26.0.2, SVG Export Plug-In . SVG Version: 6.00 Build 0)  -->
<svg version="1.1" id="圖層_1" xmlns="http://www.w3.org/2000/svg" xmlns:xlink="http://www.w3.org/1999/xlink" x="0px" y="0px"
	 viewBox="0 0 50 50" style="enable-background:new 0 0 50 50;" xml:space="preserve">
<style type="text/css">
	.st0{fill:#128450;stroke:#353535;stroke-width:5;}
	.st1{fill:#7AB979;stroke:#9EFF00;stroke-width:3;}
	.st2{fill:#1CDA19;stroke:#9EFF00;stroke-width:3;}
	.st3{display:none;fill:#353535;}
	.st4{fill:#FFFFFF;}
</style>
<path class="st0" d="M13,5.5h23.8c4.1,0,7.5,3.4,7.5,7.5v23.8c0,4.1-3.4,7.5-7.5,7.5H13c-4.1,0-7.5-3.4-7.5-7.5V13
	C5.5,8.9,8.9,5.5,13,5.5z"/>
<path class="st1" d="M13,9.5h23.8c1.9,0,3.5,1.6,3.5,3.5v23.8c0,1.9-1.6,3.5-3.5,3.5H13c-1.9,0-3.5-1.6-3.5-3.5V13
	C9.5,11.1,11.1,9.5,13,9.5z"/>
<path class="st2" d="M13,9.5h23.8c1.9,0,3.5,1.6,3.5,3.5v23.8c0,1.9-1.6,3.5-3.5,3.5H13c-1.9,0-3.5-1.6-3.5-3.5V13
	C9.5,11.1,11.1,9.5,13,9.5z"/>
<path class="st3" d="M24.9,50l4-6.9h-8L24.9,50z"/>
<path class="st4" d="M16.6,24H19l1.5,9.3L22,24h2.4l-2.8,12.4h-2.3L16.6,24z M26.2,24h3.4c1,0,1.9,0.3,2.5,0.9c0.6,0.6,1,1.5,1,2.7
	v5.3c0,1.2-0.3,2.1-1,2.7c-0.7,0.6-1.5,0.9-2.6,0.9h-3.3V24z M29.6,34.4c0.4,0,0.7-0.2,1-0.5c0.2-0.3,0.3-0.8,0.3-1.4v-4.7
	c0-0.6-0.1-1.1-0.3-1.4c-0.2-0.3-0.5-0.5-1-0.5h-1.2v8.4H29.6z"/>
<path class="st4" d="M15.9,18.9c0,0,0.1,0.1,0.1,0.1c0.1,0,0.1,0,0.2,0c0.1,0,0.1,0,0.2,0c0.1,0,0.1-0.1,0.1-0.1
	c1-1,2.3-1.8,3.6-2.3c2.8-1,6-1,8.8,0c1.4,0.5,2.6,1.3,3.7,2.3c0,0,0.1,0.1,0.1,0.1c0.1,0,0.1,0,0.2,0c0.1,0,0.1,0,0.2,0
	c0.1,0,0.1-0.1,0.1-0.1l1.2-1.1c0.1-0.1,0.1-0.1,0.1-0.2c0-0.1,0-0.2-0.1-0.2c-0.7-0.8-1.6-1.5-2.6-2c-1.1-0.6-2.2-1.1-3.4-1.4
	c-2.6-0.7-5.3-0.7-7.8,0c-1.2,0.3-2.4,0.8-3.4,1.4c-1,0.5-1.8,1.2-2.6,2c-0.1,0.1-0.1,0.1-0.1,0.2c0,0,0,0.1,0,0.1
	c0,0,0.1,0.1,0.1,0.1L15.9,18.9z M19.4,22.1c0,0,0.1,0.1,0.1,0.1c0.1,0,0.1,0,0.2,0c0.1,0,0.2-0.1,0.3-0.2c0.5-0.5,1.2-1,1.9-1.3
	c0.8-0.3,1.6-0.5,2.5-0.5c0.9,0,1.7,0.2,2.5,0.5c0.7,0.3,1.4,0.8,2,1.3c0,0,0.1,0.1,0.1,0.1c0.1,0,0.1,0,0.2,0c0.1,0,0.1,0,0.2,0
	c0.1,0,0.1-0.1,0.1-0.1l1.4-1.2c0.1-0.1,0.1-0.1,0.1-0.2c0-0.1,0-0.2-0.1-0.2c-0.5-0.5-1-0.9-1.7-1.3c-1.4-0.8-3.1-1.2-4.8-1.2
	c-1.7,0-3.4,0.4-4.8,1.2c-0.6,0.4-1.2,0.8-1.7,1.3c0,0-0.1,0.1-0.1,0.1c0,0,0,0.1,0,0.1c0,0,0,0.1,0,0.1c0,0,0.1,0.1,0.1,0.1
	L19.4,22.1z"/>
</svg>
