<?xml version="1.0" encoding="utf-8"?>
<!-- Generator: Adobe Illustrator 26.0.2, SVG Export Plug-In . SVG Version: 6.00 Build 0)  -->
<svg version="1.1" id="圖層_1" xmlns="http://www.w3.org/2000/svg" xmlns:xlink="http://www.w3.org/1999/xlink" x="0px" y="0px"
	 viewBox="0 0 50 50" style="enable-background:new 0 0 50 50;" xml:space="preserve">
<style type="text/css">
	.st0{fill:#128450;stroke:#353535;stroke-width:5;}
	.st1{fill:#23C11F;stroke:#40F574;stroke-width:3;}
	.st2{fill:#149B11;stroke:#40F574;stroke-width:3;}
	.st3{display:none;fill:#353535;}
	.st4{fill:#FFFFFF;}
</style>
<path class="st0" d="M13,5.5h23.8c4.1,0,7.5,3.4,7.5,7.5v23.8c0,4.1-3.4,7.5-7.5,7.5H13c-4.1,0-7.5-3.4-7.5-7.5V13
	C5.5,8.9,8.9,5.5,13,5.5z"/>
<path class="st1" d="M13,9.5h23.8c1.9,0,3.5,1.6,3.5,3.5v23.8c0,1.9-1.6,3.5-3.5,3.5H13c-1.9,0-3.5-1.6-3.5-3.5V13
	C9.5,11.1,11.1,9.5,13,9.5z"/>
<path class="st2" d="M13,9.5h23.8c1.9,0,3.5,1.6,3.5,3.5v23.8c0,1.9-1.6,3.5-3.5,3.5H13c-1.9,0-3.5-1.6-3.5-3.5V13
	C9.5,11.1,11.1,9.5,13,9.5z"/>
<path class="st3" d="M24.9,50l4-6.9h-8L24.9,50z"/>
<path class="st4" d="M13.5,25.2c0,0.8,0.2,1.5,0.6,2.2c0.4,0.7,1,1.2,1.7,1.6c0.7,0.4,1.6,0.6,2.4,0.6h12.7c0.8,0,1.6-0.2,2.4-0.6
	c0.7-0.4,1.3-0.9,1.7-1.6c0.4-0.7,0.6-1.4,0.6-2.2c0-0.3,0-0.7-0.1-1c-0.1-0.3-0.2-0.6-0.3-0.9l-3-7.3c-0.3-0.7-0.8-1.4-1.4-1.8
	c-0.7-0.4-1.5-0.6-2.3-0.6h-7.7c-1.9,0-3.1,0.8-3.8,2.4l-3,7.3c-0.1,0.3-0.2,0.6-0.3,0.9C13.5,24.5,13.5,24.8,13.5,25.2z M17,20.9
	l1.7-4.6c0.3-0.8,1-1.3,2.1-1.3h7.5c1.1,0,1.8,0.4,2.1,1.3l1.7,4.6c-0.2,0-0.4-0.1-0.6-0.1c-0.2,0-0.4,0-0.6,0H18.1
	c-0.2,0-0.4,0-0.6,0C17.3,20.9,17.2,20.9,17,20.9L17,20.9z M15.3,25.2c0-0.3,0.1-0.7,0.2-1c0.1-0.3,0.3-0.6,0.6-0.8
	c0.6-0.5,1.3-0.7,2-0.7h12.7c0.7,0,1.5,0.2,2,0.7c0.3,0.2,0.5,0.5,0.6,0.8c0.1,0.3,0.2,0.7,0.2,1c0,0.3,0,0.7-0.2,1
	c-0.1,0.3-0.3,0.6-0.6,0.9c-0.5,0.4-1.2,0.7-2.1,0.7H18.1c-0.7,0-1.5-0.2-2-0.7c-0.3-0.2-0.5-0.5-0.6-0.8
	C15.4,25.9,15.3,25.5,15.3,25.2z M29.6,25.2c0,0.2,0,0.3,0.1,0.5c0.1,0.2,0.2,0.3,0.3,0.4c0.1,0.1,0.3,0.2,0.4,0.3s0.3,0.1,0.5,0.1
	c0.3,0,0.6-0.1,0.9-0.4c0.2-0.2,0.3-0.4,0.3-0.6c0-0.2,0-0.5-0.1-0.7c-0.1-0.2-0.3-0.4-0.5-0.6c-0.2-0.1-0.4-0.2-0.7-0.2
	c-0.2,0-0.3,0-0.5,0.1c-0.2,0.1-0.3,0.2-0.4,0.3c-0.1,0.1-0.2,0.3-0.3,0.4C29.7,24.8,29.6,25,29.6,25.2L29.6,25.2z M23.4,34.2h1.9
	v-5.8h-1.9V34.2z M15.7,35.2h17.1c0.1,0,0.2,0,0.4-0.1c0.1,0,0.2-0.1,0.3-0.2c0.1-0.1,0.2-0.2,0.2-0.3c0-0.1,0.1-0.2,0.1-0.4
	c0-0.1,0-0.2-0.1-0.4c0-0.1-0.1-0.2-0.2-0.3c-0.1-0.1-0.2-0.2-0.3-0.2c-0.1,0-0.2-0.1-0.4-0.1H15.7c-0.2,0-0.4,0.1-0.5,0.2
	c-0.2,0.1-0.3,0.2-0.3,0.4c-0.1,0.2-0.1,0.4-0.1,0.5c0,0.2,0.1,0.3,0.3,0.5c0.1,0.1,0.2,0.2,0.3,0.2C15.5,35.1,15.6,35.2,15.7,35.2
	L15.7,35.2z M24.3,36.7c0.4,0,0.9-0.1,1.2-0.3c0.4-0.2,0.7-0.5,0.9-0.9c0.2-0.4,0.3-0.8,0.3-1.2c0-0.4-0.1-0.9-0.3-1.2
	c-0.2-0.4-0.5-0.7-0.9-0.9c-0.4-0.2-0.8-0.3-1.2-0.3s-0.9,0.1-1.2,0.3c-0.4,0.2-0.7,0.5-0.9,0.9c-0.2,0.4-0.3,0.8-0.3,1.2
	c0,0.4,0.1,0.9,0.3,1.2c0.2,0.4,0.5,0.7,0.9,0.9C23.4,36.6,23.8,36.7,24.3,36.7L24.3,36.7z"/>
</svg>
