<svg width="25" height="25" viewBox="0 0 25 25" fill="none" xmlns="http://www.w3.org/2000/svg">
<path d="M6.36759 12.1626C6.37251 11.8762 6.31772 11.5919 6.20673 11.3279C6.09575 11.0638 5.93099 10.8258 5.72295 10.6289C5.51849 10.4246 5.27488 10.2636 5.00674 10.1556C4.7386 10.0476 4.45145 9.99481 4.16243 10.0004C3.87912 9.99863 3.59824 10.0529 3.33598 10.1601C3.07373 10.2673 2.83529 10.4253 2.63433 10.625C2.43337 10.8247 2.2739 11.0622 2.16507 11.3238C2.05625 11.5853 2.00021 11.8659 2.00022 12.1492C1.99463 12.5328 2.096 12.9104 2.29298 13.2397C2.48741 13.5585 2.7578 13.8243 3.07998 14.0132C3.40613 14.203 3.77704 14.3022 4.15436 14.3006C4.54487 14.3057 4.92968 14.2065 5.26904 14.0132C5.59865 13.8276 5.87586 13.5614 6.07483 13.2397C6.26928 12.9143 6.37055 12.5417 6.36759 12.1626ZM14.1569 12.1626C14.1491 11.837 14.0674 11.5174 13.9179 11.228C13.7685 10.9386 13.5552 10.6869 13.2942 10.4921C13.0332 10.2972 12.7313 10.1643 12.4113 10.1032C12.0914 10.0422 11.7617 10.0547 11.4473 10.1398C11.1329 10.2249 10.842 10.3804 10.5965 10.5944C10.351 10.8085 10.1574 11.0756 10.0303 11.3755C9.90319 11.6754 9.84592 12.0003 9.86284 12.3256C9.87976 12.6508 9.97041 12.968 10.1279 13.2531C10.3178 13.5728 10.5859 13.839 10.9069 14.0267C11.239 14.215 11.6142 14.314 11.996 14.314C12.3778 14.314 12.7531 14.215 13.0852 14.0267C13.407 13.8391 13.6759 13.573 13.8668 13.2531C14.0605 12.9226 14.1608 12.5457 14.1569 12.1626ZM21.9998 12.1626C21.9999 11.8791 21.9438 11.5983 21.8348 11.3366C21.7258 11.0748 21.5661 10.8372 21.3648 10.6375C21.1636 10.4377 20.9248 10.2798 20.6622 10.1728C20.3997 10.0657 20.1185 10.0117 19.835 10.0138C19.546 10.0082 19.2588 10.061 18.9906 10.169C18.7225 10.277 18.4789 10.438 18.2744 10.6424C17.9321 10.9783 17.712 11.4192 17.6492 11.8948C17.5864 12.3703 17.6845 12.8532 17.928 13.2665C18.1255 13.5945 18.4055 13.8651 18.74 14.0512C19.0746 14.2374 19.4521 14.3326 19.835 14.3275C20.2124 14.3294 20.5834 14.2302 20.9094 14.0401C21.2322 13.852 21.5027 13.5861 21.6963 13.2665C21.8994 12.9345 22.0046 12.5518 21.9998 12.1626Z" fill="#676767"/>
</svg>
