<svg width="25" height="25" viewBox="0 0 25 25" fill="none" xmlns="http://www.w3.org/2000/svg">
<path d="M2.00048 10.1579C1.99401 11.2413 2.21262 12.3144 2.64277 13.3107C3.48458 15.271 5.06087 16.8323 7.04073 17.6668C8.05373 18.0885 9.1427 18.3021 10.2416 18.2947C11.0913 18.2983 11.9362 18.1679 12.7445 17.9085C13.5247 17.6598 14.2628 17.2967 14.9342 16.8313L19.7435 21.6288C19.8747 21.7511 20.0289 21.8466 20.1974 21.9099C20.3596 21.9694 20.5313 21.9997 20.7043 21.9992C20.8771 22.0052 21.0493 21.9754 21.2097 21.9116C21.3702 21.8478 21.5153 21.7514 21.6359 21.6288C21.8779 21.3762 22.0087 21.0388 21.9996 20.6908C22.001 20.517 21.9676 20.3447 21.9014 20.1838C21.8407 20.0298 21.7506 19.8888 21.6359 19.7686L16.8425 15.0079C17.3559 14.3235 17.758 13.5638 18.0343 12.7563C18.6706 10.8717 18.5942 8.8224 17.8193 6.98931C17.402 6.0207 16.8021 5.1397 16.0516 4.39351C15.2999 3.64477 14.4084 3.0478 13.4266 2.63583C12.4136 2.21613 11.3265 2 10.2284 2C9.13025 2 8.04307 2.21613 7.0301 2.63583C5.05403 3.4745 3.47941 5.03321 2.63217 6.98931C2.20344 7.99117 1.98838 9.0699 2.00048 10.1579ZM3.99642 10.1579C3.99109 9.34554 4.14934 8.5403 4.46196 7.7892C4.77458 7.03811 5.2353 6.35621 5.81716 5.78336C6.39078 5.21899 7.0683 4.76861 7.81309 4.45656C8.58168 4.13918 9.40618 3.97576 10.239 3.97576C11.0718 3.97576 11.8963 4.13918 12.6649 4.45656C13.4077 4.76937 14.0833 5.2197 14.6555 5.78336C15.2294 6.34776 15.6873 7.01694 16.0038 7.75386C16.3244 8.51468 16.4895 9.33087 16.4895 10.1552C16.4895 10.9796 16.3244 11.7958 16.0038 12.5566C15.3597 14.0411 14.1645 15.2242 12.6649 15.8618C11.8963 16.1792 11.0718 16.3426 10.239 16.3426C9.40618 16.3426 8.58168 16.1792 7.81309 15.8618C7.0674 15.5479 6.38975 15.0947 5.81716 14.5271C5.24966 13.9619 4.7989 13.2926 4.49008 12.5566C4.16192 11.7988 3.99392 10.9824 3.99642 10.1579Z" fill="#676767"/>
</svg>
