<svg width="25" height="25" viewBox="0 0 25 25" fill="none" xmlns="http://www.w3.org/2000/svg">
<path d="M2.01413 18.8335C2.01413 19.7703 2.24042 20.4703 2.693 20.9335C3.14558 21.3966 3.8433 21.6289 4.78618 21.6304H19.1827C20.1271 21.6304 20.8324 21.4041 21.2985 20.9515C21.7647 20.499 21.9985 19.8043 22 18.8674V5.77431C22 4.84653 21.7662 4.15257 21.2985 3.69245C20.8308 3.23232 20.1256 3.00151 19.1827 3H8.78696C7.84258 3 7.13731 3.23081 6.67116 3.69245C6.205 4.15408 5.97042 4.84803 5.9674 5.77431V9.70721H3.86969C3.36984 9.67473 2.87682 9.83691 2.49386 10.1598C2.32588 10.3253 2.19516 10.5248 2.11048 10.7449C2.0258 10.965 1.98909 11.2006 2.00281 11.4361L2.01413 18.8335ZM3.59816 18.8448V11.7619C3.59339 11.7013 3.60182 11.6403 3.62288 11.5832C3.64394 11.5262 3.67713 11.4743 3.72014 11.4313C3.76316 11.3883 3.81497 11.3551 3.87204 11.3341C3.92911 11.313 3.99009 11.3046 4.05074 11.3093H5.96061V18.8448C5.96543 19.0039 5.93717 19.1623 5.87757 19.31C5.81797 19.4576 5.72833 19.5912 5.61438 19.7024C5.39019 19.9222 5.08878 20.0453 4.77485 20.0453C4.46092 20.0453 4.15952 19.9222 3.93533 19.7024C3.82423 19.5899 3.73754 19.4556 3.6807 19.3081C3.62385 19.1605 3.59804 19.0028 3.60492 18.8448H3.59816ZM7.30931 20.0396C7.48227 19.627 7.56925 19.1835 7.56499 18.7362V5.86256C7.55244 5.69035 7.57485 5.51739 7.63084 5.35407C7.68684 5.19074 7.77529 5.04043 7.89086 4.91215C8.01558 4.8006 8.16122 4.71493 8.31932 4.66016C8.47743 4.60538 8.64485 4.58258 8.81185 4.59307H19.1669C19.3339 4.58258 19.5013 4.60538 19.6594 4.66016C19.8175 4.71493 19.9631 4.8006 20.0879 4.91215C20.2034 5.04043 20.2919 5.19074 20.3479 5.35407C20.4039 5.51739 20.4263 5.69035 20.4137 5.86256V18.7611C20.436 18.9312 20.4194 19.1042 20.365 19.2669C20.3106 19.4297 20.2199 19.5779 20.0998 19.7004C19.9797 19.8229 19.8333 19.9165 19.6716 19.9741C19.51 20.0317 19.3374 20.0518 19.1669 20.0328L7.30931 20.0396ZM9.73059 8.27254H18.2594C18.3388 8.27461 18.4176 8.25996 18.4909 8.22955C18.5642 8.19914 18.6303 8.15364 18.6849 8.09603C18.7411 8.03973 18.7854 7.97259 18.8149 7.89869C18.8445 7.82479 18.8587 7.74566 18.8568 7.66609C18.8584 7.58891 18.844 7.51224 18.8144 7.44095C18.7848 7.36966 18.7407 7.30531 18.6849 7.25198C18.6296 7.19552 18.5634 7.15109 18.4901 7.1215C18.4169 7.0919 18.3384 7.07777 18.2594 7.07999H9.73059C9.64741 7.07618 9.56431 7.08947 9.48646 7.11905C9.40861 7.14863 9.33768 7.19388 9.27802 7.25198C9.22116 7.30473 9.17606 7.36888 9.14565 7.44023C9.11523 7.51158 9.10019 7.58854 9.1015 7.66609C9.09992 7.74602 9.11476 7.82542 9.14512 7.89938C9.17548 7.97334 9.22073 8.04027 9.27802 8.09603C9.33712 8.15767 9.40863 8.20609 9.48781 8.23807C9.567 8.27006 9.65206 8.28488 9.73739 8.28159L9.73059 8.27254ZM9.73059 11.289H18.2594C18.3378 11.2914 18.4159 11.2781 18.489 11.2497C18.562 11.2213 18.6287 11.1785 18.6849 11.1238C18.7412 11.0699 18.7857 11.0049 18.8153 10.9327C18.8449 10.8606 18.8591 10.7831 18.8568 10.7052C18.8588 10.6252 18.8446 10.5458 18.815 10.4715C18.7855 10.3972 18.7412 10.3297 18.6849 10.2729C18.6303 10.2153 18.5642 10.1698 18.4909 10.1394C18.4176 10.109 18.3388 10.0944 18.2594 10.0964H9.73059C9.64705 10.0929 9.56367 10.1068 9.48577 10.1372C9.40787 10.1676 9.33713 10.2138 9.27802 10.2729C9.22066 10.3291 9.17542 10.3965 9.14507 10.4708C9.11471 10.5451 9.09988 10.6249 9.1015 10.7052C9.09955 10.7835 9.11427 10.8613 9.14471 10.9335C9.17514 11.0056 9.22058 11.0705 9.27802 11.1238C9.33875 11.1825 9.4108 11.2282 9.48978 11.2582C9.56875 11.2881 9.653 11.3017 9.73739 11.298L9.73059 11.289ZM10.2058 17.4214H12.437C12.5851 17.4301 12.7334 17.4087 12.873 17.3585C13.0127 17.3084 13.1407 17.2305 13.2494 17.1295C13.3498 17.0227 13.4274 16.8967 13.4776 16.759C13.5278 16.6213 13.5495 16.4748 13.5413 16.3284V14.2172C13.5502 14.0701 13.5289 13.9227 13.4787 13.7842C13.4285 13.6456 13.3505 13.5188 13.2494 13.4116C13.1401 13.3118 13.0119 13.2349 12.8723 13.1856C12.7328 13.1362 12.5848 13.1153 12.437 13.1242H10.2058C10.0598 13.1158 9.91364 13.137 9.77601 13.1863C9.63837 13.2357 9.5121 13.3123 9.40472 13.4116C9.30291 13.5184 9.22425 13.6451 9.17363 13.7837C9.12301 13.9223 9.10154 14.0699 9.11056 14.2172V16.3284C9.09854 16.4752 9.11863 16.6229 9.16946 16.7611C9.22028 16.8993 9.30059 17.0248 9.40483 17.1288C9.50907 17.2328 9.63473 17.3129 9.77305 17.3634C9.91137 17.414 10.059 17.4338 10.2058 17.4214ZM15.0778 14.3167H18.2594C18.3382 14.3189 18.4165 14.3049 18.4896 14.2757C18.5628 14.2465 18.6292 14.2027 18.6849 14.147C18.7405 14.0931 18.7845 14.0283 18.8141 13.9567C18.8437 13.8851 18.8582 13.8081 18.8568 13.7306C18.8585 13.6511 18.8441 13.5721 18.8146 13.4982C18.785 13.4243 18.7409 13.3572 18.6849 13.3007C18.6303 13.2431 18.5642 13.1976 18.4909 13.1672C18.4176 13.1368 18.3388 13.1221 18.2594 13.1242H15.0778C14.9968 13.1217 14.9161 13.1361 14.8409 13.1664C14.7657 13.1968 14.6976 13.2426 14.6411 13.3007C14.5854 13.3575 14.5416 13.4247 14.5121 13.4985C14.4826 13.5723 14.4679 13.6512 14.4691 13.7306C14.4682 13.8081 14.483 13.8848 14.5126 13.9564C14.5421 14.0279 14.5858 14.0928 14.6411 14.147C14.6987 14.2058 14.7679 14.252 14.8442 14.2827C14.9205 14.3135 15.0024 14.3281 15.0846 14.3258L15.0778 14.3167ZM15.0778 17.4214H18.2594C18.3382 17.4235 18.4165 17.4096 18.4896 17.3804C18.5628 17.3512 18.6292 17.3074 18.6849 17.2517C18.7403 17.1981 18.7842 17.1337 18.8138 17.0625C18.8434 16.9913 18.858 16.9147 18.8568 16.8376C18.8608 16.7544 18.8476 16.6713 18.818 16.5934C18.7884 16.5155 18.7431 16.4446 18.6849 16.385C18.6303 16.3274 18.5642 16.2819 18.4909 16.2515C18.4176 16.2211 18.3388 16.2065 18.2594 16.2085H15.0778C14.9968 16.206 14.9161 16.2204 14.8409 16.2508C14.7657 16.2812 14.6976 16.3269 14.6411 16.385C14.5833 16.4449 14.5383 16.5159 14.5087 16.5937C14.4792 16.6715 14.4657 16.7545 14.4691 16.8376C14.4684 16.9146 14.4833 16.991 14.5129 17.0622C14.5424 17.1333 14.586 17.1978 14.6411 17.2517C14.6987 17.3105 14.7679 17.3567 14.8442 17.3874C14.9205 17.4182 15.0024 17.4328 15.0846 17.4305L15.0778 17.4214Z" fill="#676767"/>
</svg>
