<svg width="25" height="25" viewBox="0 0 25 25" fill="none" xmlns="http://www.w3.org/2000/svg">
<path d="M7.50592 21.6131H19.443C20.2787 21.6326 21.1053 21.4363 21.843 21.0432C22.5023 20.6844 23.0518 20.153 23.4325 19.506C23.8548 18.7651 24.0487 17.9158 23.9896 17.0649C23.9305 16.2141 23.6212 15.3998 23.1005 14.7244C22.5208 13.9707 21.7113 13.4264 20.7946 13.174C20.7115 12.3814 20.4262 11.6234 19.9659 10.9728C19.514 10.3288 18.9201 9.79745 18.23 9.41985C17.5295 9.0374 16.743 8.84032 15.945 8.84731C15.196 8.8452 14.457 9.01987 13.7882 9.35711C13.1134 9.69193 12.5241 10.1766 12.0653 10.7741L11.5424 10.6904C11.3547 10.6615 11.1651 10.6467 10.9752 10.646C10.0461 10.6514 9.14651 10.9731 8.42467 11.5581C7.70284 12.143 7.20176 12.9564 7.00396 13.8642C6.35972 13.9377 5.74272 14.1655 5.20529 14.5283C4.68415 14.8758 4.25459 15.3439 3.95304 15.893C3.64449 16.4531 3.48599 17.0835 3.49291 17.723C3.48125 18.4266 3.66205 19.1199 4.01578 19.7282C4.35977 20.3098 4.85365 20.7883 5.44582 21.1138C6.07851 21.4537 6.78782 21.6256 7.50592 21.6131ZM7.50592 19.9007C6.89612 19.9274 6.30048 19.7122 5.84844 19.3021C5.64317 19.0951 5.48075 18.8497 5.37054 18.5799C5.26032 18.3101 5.20445 18.0211 5.20615 17.7297C5.20785 17.4382 5.26707 17.1499 5.38043 16.8814C5.49378 16.6129 5.65905 16.3694 5.86672 16.1648C6.29983 15.7462 6.88003 15.5143 7.4824 15.5191C7.77542 15.5299 8.06466 15.4505 8.31113 15.2917C8.404 15.2051 8.47797 15.1003 8.52836 14.9837C8.57875 14.8672 8.60447 14.7415 8.60393 14.6145C8.63053 14.0035 8.89403 13.4268 9.33858 13.0067C9.55423 12.7976 9.80923 12.6333 10.0888 12.5233C10.3684 12.4134 10.667 12.36 10.9673 12.3662C11.1344 12.3637 11.3011 12.3813 11.464 12.4185C11.6412 12.4638 11.8158 12.5188 11.9869 12.5832C12.208 12.6952 12.4604 12.7293 12.7032 12.6799C12.804 12.6444 12.896 12.5878 12.9731 12.5138C13.0502 12.4399 13.1106 12.3504 13.1503 12.2512C13.3921 11.737 13.7865 11.3098 14.2797 11.0277C14.7865 10.7236 15.367 10.5644 15.9581 10.5675C16.51 10.5637 17.0525 10.7111 17.5267 10.9937C17.9977 11.2733 18.3906 11.6672 18.6691 12.1388C18.9527 12.6126 19.101 13.1552 19.0979 13.7074C19.0743 13.9856 19.1492 14.2632 19.3097 14.4917C19.519 14.68 19.7866 14.7908 20.0678 14.8054C20.6791 14.8612 21.2433 15.1574 21.6364 15.6289C22.0518 16.0939 22.2792 16.6969 22.2743 17.3204C22.2884 17.6677 22.2254 18.0138 22.0898 18.3339C21.9542 18.6539 21.7494 18.9399 21.49 19.1713C20.9196 19.6551 20.1875 19.9053 19.4404 19.872L7.50592 19.9007ZM0.000126951 12.51C-0.00578899 13.2543 0.195164 13.9856 0.580535 14.6224C0.976777 15.2728 1.53891 15.806 2.20926 16.1675C2.96685 16.5688 3.81491 16.7687 4.67199 16.7479H4.77392L5.27326 15.025H4.9151C4.08663 15.0646 3.27 14.8161 2.60403 14.3217C2.32453 14.1108 2.09896 13.8366 1.94582 13.5217C1.79268 13.2068 1.71634 12.8601 1.723 12.51C1.71223 11.8723 1.94288 11.2541 2.36874 10.7793C2.76832 10.3047 3.33606 10.003 3.95304 9.9375C4.21701 9.92968 4.46824 9.82226 4.65628 9.63684C4.81712 9.41729 4.89408 9.14743 4.87326 8.87606C4.85017 8.32427 4.99219 7.77813 5.28112 7.30746C5.56805 6.83341 5.96653 6.43672 6.44187 6.15192C6.92227 5.85978 7.4744 5.70682 8.03664 5.7101C8.5955 5.71193 9.1439 5.86167 9.62615 6.14409C10.1199 6.44736 10.5305 6.86872 10.8209 7.37021C10.9236 7.56335 11.0969 7.70943 11.3046 7.77805C11.5339 7.83669 11.7761 7.81926 11.9947 7.72838C12.1394 7.68655 12.3137 7.6421 12.5176 7.59504C12.7207 7.54748 12.9286 7.52379 13.1372 7.52445C13.6943 7.51908 14.231 7.7343 14.63 8.12315C14.8322 8.30378 14.9953 8.52377 15.1095 8.76966C15.2237 9.01556 15.2865 9.28218 15.294 9.55318H17.0561C17.0531 8.88866 16.8725 8.23702 16.5332 7.66564C16.2015 7.1042 15.7305 6.63777 15.1659 6.31139C14.5885 5.97804 13.932 5.80645 13.2653 5.81468C13.0321 5.81349 12.7991 5.82571 12.5673 5.85128C12.3653 5.87189 12.1663 5.91485 11.9738 5.97938C11.4694 5.36139 10.8473 4.84956 10.1438 4.47352C9.49342 4.15383 8.77694 3.99173 8.05231 4.00032C7.25245 3.99429 6.46424 4.19224 5.76215 4.57548C5.0654 4.95363 4.46792 5.49111 4.0184 6.14409C3.56069 6.80213 3.27159 7.56251 3.17656 8.35843C2.26696 8.60722 1.46436 9.14809 0.892296 9.89777C0.320235 10.6474 0.010432 11.5644 0.0105945 12.5074L0.000126951 12.51Z" fill="#676767"/>
</svg>
